<svg xmlns="http://www.w3.org/2000/svg" version="1.1"
    xmlns:xlink="http://www.w3.org/1999/xlink"
    xmlns:svgjs="http://svgjs.com/svgjs" width="1440" height="560" preserveAspectRatio="none" viewBox="0 0 1440 560">
    <g mask="url(&quot;#SvgjsMask1020&quot;)" fill="none">
        <rect width="1440" height="560" x="0" y="0" fill="#0e2a47"></rect>
        <path d="M216.38 75.18L281.33 112.68L281.33 187.68L216.38 225.18L151.43 187.68L151.43 112.68zM216.38 525.18L281.33 562.68L281.33 637.68L216.38 675.18L151.43 637.68L151.43 562.68zM476.2 75.18L541.15 112.68L541.15 187.68L476.2 225.18L411.24 187.68L411.24 112.68zM800.96 412.68L865.92 450.18L865.92 525.18L800.96 562.68L736.01 525.18L736.01 450.18zM995.83 525.18L1060.78 562.68L1060.78 637.68L995.83 675.18L930.87 637.68L930.87 562.68zM1255.64 525.18L1320.59 562.68L1320.59 637.68L1255.64 675.18L1190.69 637.68L1190.69 562.68zM1385.55 75.18L1450.5 112.68L1450.5 187.68L1385.55 225.18L1320.6 187.68L1320.6 112.68zM1450.5 -37.32L1515.46 0.18L1515.46 75.18L1450.5 112.68L1385.55 75.18L1385.55 0.18zM1515.46 75.18L1580.41 112.68L1580.41 187.68L1515.46 225.18L1450.5 187.68L1450.5 112.68z" stroke="rgba(6, 80, 156, 0.93)" stroke-width="2"></path>
        <path d="M208.88 75.18 a7.5 7.5 0 1 0 15 0 a7.5 7.5 0 1 0 -15 0zM273.83 112.68 a7.5 7.5 0 1 0 15 0 a7.5 7.5 0 1 0 -15 0zM273.83 187.68 a7.5 7.5 0 1 0 15 0 a7.5 7.5 0 1 0 -15 0zM208.88 225.18 a7.5 7.5 0 1 0 15 0 a7.5 7.5 0 1 0 -15 0zM143.93 187.68 a7.5 7.5 0 1 0 15 0 a7.5 7.5 0 1 0 -15 0zM143.93 112.68 a7.5 7.5 0 1 0 15 0 a7.5 7.5 0 1 0 -15 0zM208.88 525.18 a7.5 7.5 0 1 0 15 0 a7.5 7.5 0 1 0 -15 0zM273.83 562.68 a7.5 7.5 0 1 0 15 0 a7.5 7.5 0 1 0 -15 0zM273.83 637.68 a7.5 7.5 0 1 0 15 0 a7.5 7.5 0 1 0 -15 0zM208.88 675.18 a7.5 7.5 0 1 0 15 0 a7.5 7.5 0 1 0 -15 0zM143.93 637.68 a7.5 7.5 0 1 0 15 0 a7.5 7.5 0 1 0 -15 0zM143.93 562.68 a7.5 7.5 0 1 0 15 0 a7.5 7.5 0 1 0 -15 0zM468.7 75.18 a7.5 7.5 0 1 0 15 0 a7.5 7.5 0 1 0 -15 0zM533.65 112.68 a7.5 7.5 0 1 0 15 0 a7.5 7.5 0 1 0 -15 0zM533.65 187.68 a7.5 7.5 0 1 0 15 0 a7.5 7.5 0 1 0 -15 0zM468.7 225.18 a7.5 7.5 0 1 0 15 0 a7.5 7.5 0 1 0 -15 0zM403.74 187.68 a7.5 7.5 0 1 0 15 0 a7.5 7.5 0 1 0 -15 0zM403.74 112.68 a7.5 7.5 0 1 0 15 0 a7.5 7.5 0 1 0 -15 0zM793.46 412.68 a7.5 7.5 0 1 0 15 0 a7.5 7.5 0 1 0 -15 0zM858.42 450.18 a7.5 7.5 0 1 0 15 0 a7.5 7.5 0 1 0 -15 0zM858.42 525.18 a7.5 7.5 0 1 0 15 0 a7.5 7.5 0 1 0 -15 0zM793.46 562.68 a7.5 7.5 0 1 0 15 0 a7.5 7.5 0 1 0 -15 0zM728.51 525.18 a7.5 7.5 0 1 0 15 0 a7.5 7.5 0 1 0 -15 0zM728.51 450.18 a7.5 7.5 0 1 0 15 0 a7.5 7.5 0 1 0 -15 0zM988.33 525.18 a7.5 7.5 0 1 0 15 0 a7.5 7.5 0 1 0 -15 0zM1053.28 562.68 a7.5 7.5 0 1 0 15 0 a7.5 7.5 0 1 0 -15 0zM1053.28 637.68 a7.5 7.5 0 1 0 15 0 a7.5 7.5 0 1 0 -15 0zM988.33 675.18 a7.5 7.5 0 1 0 15 0 a7.5 7.5 0 1 0 -15 0zM923.37 637.68 a7.5 7.5 0 1 0 15 0 a7.5 7.5 0 1 0 -15 0zM923.37 562.68 a7.5 7.5 0 1 0 15 0 a7.5 7.5 0 1 0 -15 0zM1248.14 525.18 a7.5 7.5 0 1 0 15 0 a7.5 7.5 0 1 0 -15 0zM1313.09 562.68 a7.5 7.5 0 1 0 15 0 a7.5 7.5 0 1 0 -15 0zM1313.09 637.68 a7.5 7.5 0 1 0 15 0 a7.5 7.5 0 1 0 -15 0zM1248.14 675.18 a7.5 7.5 0 1 0 15 0 a7.5 7.5 0 1 0 -15 0zM1183.19 637.68 a7.5 7.5 0 1 0 15 0 a7.5 7.5 0 1 0 -15 0zM1183.19 562.68 a7.5 7.5 0 1 0 15 0 a7.5 7.5 0 1 0 -15 0zM1378.05 75.18 a7.5 7.5 0 1 0 15 0 a7.5 7.5 0 1 0 -15 0zM1443 112.68 a7.5 7.5 0 1 0 15 0 a7.5 7.5 0 1 0 -15 0zM1443 187.68 a7.5 7.5 0 1 0 15 0 a7.5 7.5 0 1 0 -15 0zM1378.05 225.18 a7.5 7.5 0 1 0 15 0 a7.5 7.5 0 1 0 -15 0zM1313.1 187.68 a7.5 7.5 0 1 0 15 0 a7.5 7.5 0 1 0 -15 0zM1313.1 112.68 a7.5 7.5 0 1 0 15 0 a7.5 7.5 0 1 0 -15 0zM1443 -37.32 a7.5 7.5 0 1 0 15 0 a7.5 7.5 0 1 0 -15 0zM1507.96 0.18 a7.5 7.5 0 1 0 15 0 a7.5 7.5 0 1 0 -15 0zM1507.96 75.18 a7.5 7.5 0 1 0 15 0 a7.5 7.5 0 1 0 -15 0zM1378.05 0.18 a7.5 7.5 0 1 0 15 0 a7.5 7.5 0 1 0 -15 0zM1572.91 112.68 a7.5 7.5 0 1 0 15 0 a7.5 7.5 0 1 0 -15 0zM1572.91 187.68 a7.5 7.5 0 1 0 15 0 a7.5 7.5 0 1 0 -15 0zM1507.96 225.18 a7.5 7.5 0 1 0 15 0 a7.5 7.5 0 1 0 -15 0z" fill="rgba(6, 80, 156, 0.93)"></path>
        <path d="M45.54 -43.03L88.84 -18.03L88.84 31.97L45.54 56.97L2.24 31.97L2.24 -18.03zM88.84 181.97L132.15 206.97L132.15 256.97L88.84 281.97L45.54 256.97L45.54 206.97zM88.84 331.97L132.15 356.97L132.15 406.97L88.84 431.97L45.54 406.97L45.54 356.97zM88.84 481.97L132.15 506.97L132.15 556.97L88.84 581.97L45.54 556.97L45.54 506.97zM132.15 -43.03L175.45 -18.03L175.45 31.97L132.15 56.97L88.84 31.97L88.84 -18.03zM175.45 181.97L218.75 206.97L218.75 256.97L175.45 281.97L132.15 256.97L132.15 206.97zM262.05 31.97L305.36 56.97L305.36 106.97L262.05 131.97L218.75 106.97L218.75 56.97zM348.66 181.97L391.96 206.97L391.96 256.97L348.66 281.97L305.36 256.97L305.36 206.97zM435.26 181.97L478.57 206.97L478.57 256.97L435.26 281.97L391.96 256.97L391.96 206.97zM478.57 256.97L521.87 281.97L521.87 331.97L478.57 356.97L435.26 331.97L435.26 281.97zM478.57 406.97L521.87 431.97L521.87 481.97L478.57 506.97L435.26 481.97L435.26 431.97zM565.17 256.97L608.47 281.97L608.47 331.97L565.17 356.97L521.87 331.97L521.87 281.97zM565.17 406.97L608.47 431.97L608.47 481.97L565.17 506.97L521.87 481.97L521.87 431.97zM651.77 -43.03L695.08 -18.03L695.08 31.97L651.77 56.97L608.47 31.97L608.47 -18.03zM695.08 31.97L738.38 56.97L738.38 106.97L695.08 131.97L651.77 106.97L651.77 56.97zM781.68 31.97L824.99 56.97L824.99 106.97L781.68 131.97L738.38 106.97L738.38 56.97zM738.38 256.97L781.68 281.97L781.68 331.97L738.38 356.97L695.08 331.97L695.08 281.97zM868.29 31.97L911.59 56.97L911.59 106.97L868.29 131.97L824.99 106.97L824.99 56.97zM911.59 -43.03L954.89 -18.03L954.89 31.97L911.59 56.97L868.29 31.97L868.29 -18.03zM911.59 106.97L954.89 131.97L954.89 181.97L911.59 206.97L868.29 181.97L868.29 131.97zM911.59 256.97L954.89 281.97L954.89 331.97L911.59 356.97L868.29 331.97L868.29 281.97zM911.59 406.97L954.89 431.97L954.89 481.97L911.59 506.97L868.29 481.97L868.29 431.97zM954.89 481.97L998.2 506.97L998.2 556.97L954.89 581.97L911.59 556.97L911.59 506.97zM1041.5 31.97L1084.8 56.97L1084.8 106.97L1041.5 131.97L998.2 106.97L998.2 56.97zM1084.8 -43.03L1128.1 -18.03L1128.1 31.97L1084.8 56.97L1041.5 31.97L1041.5 -18.03zM1128.1 31.97L1171.4 56.97L1171.4 106.97L1128.1 131.97L1084.8 106.97L1084.8 56.97zM1171.4 -43.03L1214.71 -18.03L1214.71 31.97L1171.4 56.97L1128.1 31.97L1128.1 -18.03zM1214.71 181.97L1258.01 206.97L1258.01 256.97L1214.71 281.97L1171.4 256.97L1171.4 206.97zM1171.4 256.97L1214.71 281.97L1214.71 331.97L1171.4 356.97L1128.1 331.97L1128.1 281.97zM1214.71 331.97L1258.01 356.97L1258.01 406.97L1214.71 431.97L1171.4 406.97L1171.4 356.97zM1171.4 406.97L1214.71 431.97L1214.71 481.97L1171.4 506.97L1128.1 481.97L1128.1 431.97zM1301.31 481.97L1344.62 506.97L1344.62 556.97L1301.31 581.97L1258.01 556.97L1258.01 506.97zM1431.22 406.97L1474.52 431.97L1474.52 481.97L1431.22 506.97L1387.92 481.97L1387.92 431.97z" stroke="rgba(6, 80, 156, 0.93)" stroke-width="2"></path>
    </g>
    <defs>
        <mask id="SvgjsMask1020">
            <rect width="1440" height="560" fill="#ffffff"></rect>
        </mask>
    </defs>
</svg>