<svg xmlns="http://www.w3.org/2000/svg" version="1.1"
    xmlns:xlink="http://www.w3.org/1999/xlink"
    xmlns:svgjs="http://svgjs.com/svgjs" width="1440" height="1080" preserveAspectRatio="none" viewBox="0 0 1440 1080">
    <g mask="url(&quot;#SvgjsMask1094&quot;)" fill="none">
        <rect width="1440" height="1080" x="0" y="0" fill="rgba(18, 13, 49, 1)"></rect>
        <path d="M1393.091,568.374C1452.037,566.698,1495.317,517.16,1521.036,464.094C1543.367,418.019,1535.615,366.933,1512.98,321.007C1486.576,267.435,1452.757,207.15,1393.091,204.502C1330.676,201.732,1282.42,254.238,1253.234,309.478C1226.151,360.738,1224.336,420.739,1251.891,471.747C1280.944,525.528,1331.989,570.111,1393.091,568.374" fill="rgba(28, 83, 142, 0.4)" class="triangle-float3"></path>
        <path d="M208.523,1107.507C255.019,1106.377,286.119,1064.289,307.567,1023.02C327.02,985.589,333.143,942.548,313.712,905.106C292.647,864.514,254.211,830.168,208.523,832.164C165.085,834.061,139.086,875.553,118.131,913.649C98.208,949.868,83.307,990.581,100.776,1028.045C120.989,1071.394,160.707,1108.669,208.523,1107.507" fill="rgba(28, 83, 142, 0.4)" class="triangle-float3"></path>
        <path d="M-56.099,795.089C-27.335,795.613,-1.622,777.314,11.867,751.903C24.568,727.977,19.547,700.24,6.989,676.239C-6.791,649.902,-26.375,621.84,-56.099,621.998C-85.67,622.155,-104.805,650.458,-118.039,676.902C-129.651,700.105,-131.952,726.522,-119.908,749.503C-106.903,774.319,-84.111,794.579,-56.099,795.089" fill="rgba(28, 83, 142, 0.4)" class="triangle-float1"></path>
        <path d="M937.11,795.851C1037.165,796.643,1111.796,711.481,1156.758,622.094C1196.88,542.33,1193.645,450.257,1150.178,372.266C1105.423,291.965,1028.948,232.132,937.11,227.992C837.871,223.519,735.629,264.277,687.955,351.43C641.735,435.924,676.306,534.655,723.404,618.663C771.905,705.174,837.934,795.066,937.11,795.851" fill="rgba(28, 83, 142, 0.4)" class="triangle-float1"></path>
        <path d="M1351.905,842.163C1402.356,842.028,1458.875,839.216,1485.48,796.35C1513.082,751.877,1498.061,695.269,1470.813,650.579C1444.833,607.969,1401.714,580.384,1351.905,577.274C1295.484,573.752,1233.722,585.744,1204.164,633.932C1173.594,683.769,1183.25,749.388,1217.082,797.071C1246.472,838.494,1301.115,842.299,1351.905,842.163" fill="rgba(28, 83, 142, 0.4)" class="triangle-float2"></path>
        <path d="M655.963,560.206C751.423,557.932,839.714,513.377,890.894,432.764C946.292,345.507,971.745,234.154,919.637,144.894C867.855,56.192,758.664,28.947,655.963,30.328C556.13,31.671,456.668,66.823,404.294,151.825C349.452,240.834,345.962,355.434,400.812,444.438C453.329,529.656,555.89,562.59,655.963,560.206" fill="rgba(28, 83, 142, 0.4)" class="triangle-float2"></path>
    </g>
    <defs>
        <mask id="SvgjsMask1094">
            <rect width="1440" height="1080" fill="#ffffff"></rect>
        </mask>
        <style>
            @keyframes float1 {
                0%{transform: translate(0, 0)}
                50%{transform: translate(-20px, 0)}
                100%{transform: translate(0, 0)}
            }

            .triangle-float1 {
                animation: float1 5s infinite;
            }

            @keyframes float2 {
                0%{transform: translate(0, 0)}
                50%{transform: translate(-15px, -15px)}
                100%{transform: translate(0, 0)}
            }

            .triangle-float2 {
                animation: float2 4s infinite;
            }

            @keyframes float3 {
                0%{transform: translate(0, 0)}
                50%{transform: translate(0, -20px)}
                100%{transform: translate(0, 0)}
            }

            .triangle-float3 {
                animation: float3 6s infinite;
            }
        </style>
    </defs>
</svg>