<svg xmlns="http://www.w3.org/2000/svg" version="1.1"
    xmlns:xlink="http://www.w3.org/1999/xlink"
    xmlns:svgjs="http://svgjs.com/svgjs" width="1440" height="560" preserveAspectRatio="none" viewBox="0 0 1440 560">
    <g mask="url(&quot;#SvgjsMask1012&quot;)" fill="none">
        <rect width="1440" height="560" x="0" y="0" fill="rgba(18, 13, 49, 1)"></rect>
        <path d="M-58.53 382.91L-58.53 382.91" stroke="#132e65" stroke-width="1.5"></path>
        <path d="M-58.53 382.91L68.79 412.08" stroke="#132e65" stroke-width="1.5"></path>
        <path d="M-58.53 382.91L234.44 395.99" stroke="#132e65" stroke-width="1.5"></path>
        <path d="M-58.53 382.91L108.13 637.8" stroke="#132e65" stroke-width="1.5"></path>
        <path d="M-58.53 382.91L-89.99 687.47" stroke="#132e65" stroke-width="1.5"></path>
        <path d="M-89.99 687.47L-89.99 687.47" stroke="#132e65" stroke-width="1.5"></path>
        <path d="M-89.99 687.47L108.13 637.8" stroke="#132e65" stroke-width="1.5"></path>
        <path d="M-89.99 687.47L194.89 688.32" stroke="#132e65" stroke-width="1.5"></path>
        <path d="M-89.99 687.47L68.79 412.08" stroke="#132e65" stroke-width="1.5"></path>
        <path d="M-89.99 687.47L211.82 558.8" stroke="#132e65" stroke-width="1.5"></path>
        <path d="M-89.99 687.47L234.44 395.99" stroke="#132e65" stroke-width="1.5"></path>
        <path d="M68.79 412.08L68.79 412.08" stroke="#132e65" stroke-width="1.5"></path>
        <path d="M68.79 412.08L234.44 395.99" stroke="#132e65" stroke-width="1.5"></path>
        <path d="M68.79 412.08L211.82 558.8" stroke="#132e65" stroke-width="1.5"></path>
        <path d="M68.79 412.08L108.13 637.8" stroke="#132e65" stroke-width="1.5"></path>
        <path d="M108.13 637.8L108.13 637.8" stroke="#132e65" stroke-width="1.5"></path>
        <path d="M108.13 637.8L194.89 688.32" stroke="#132e65" stroke-width="1.5"></path>
        <path d="M108.13 637.8L211.82 558.8" stroke="#132e65" stroke-width="1.5"></path>
        <path d="M234.44 395.99L234.44 395.99" stroke="#132e65" stroke-width="1.5"></path>
        <path d="M234.44 395.99L358 369.27" stroke="#132e65" stroke-width="1.5"></path>
        <path d="M234.44 395.99L211.82 558.8" stroke="#132e65" stroke-width="1.5"></path>
        <path d="M211.82 558.8L211.82 558.8" stroke="#132e65" stroke-width="1.5"></path>
        <path d="M211.82 558.8L194.89 688.32" stroke="#132e65" stroke-width="1.5"></path>
        <path d="M194.89 688.32L194.89 688.32" stroke="#132e65" stroke-width="1.5"></path>
        <path d="M194.89 688.32L406.74 690.99" stroke="#132e65" stroke-width="1.5"></path>
        <path d="M194.89 688.32L379.16 490.21" stroke="#132e65" stroke-width="1.5"></path>
        <path d="M194.89 688.32L234.44 395.99" stroke="#132e65" stroke-width="1.5"></path>
        <path d="M358 369.27L358 369.27" stroke="#132e65" stroke-width="1.5"></path>
        <path d="M358 369.27L379.16 490.21" stroke="#132e65" stroke-width="1.5"></path>
        <path d="M358 369.27L544.12 347.11" stroke="#132e65" stroke-width="1.5"></path>
        <path d="M358 369.27L211.82 558.8" stroke="#132e65" stroke-width="1.5"></path>
        <path d="M358 369.27L560.01 511.22" stroke="#132e65" stroke-width="1.5"></path>
        <path d="M379.16 490.21L379.16 490.21" stroke="#132e65" stroke-width="1.5"></path>
        <path d="M379.16 490.21L234.44 395.99" stroke="#132e65" stroke-width="1.5"></path>
        <path d="M379.16 490.21L211.82 558.8" stroke="#132e65" stroke-width="1.5"></path>
        <path d="M379.16 490.21L560.01 511.22" stroke="#132e65" stroke-width="1.5"></path>
        <path d="M406.74 690.99L406.74 690.99" stroke="#132e65" stroke-width="1.5"></path>
        <path d="M406.74 690.99L521.17 708.84" stroke="#132e65" stroke-width="1.5"></path>
        <path d="M406.74 690.99L379.16 490.21" stroke="#132e65" stroke-width="1.5"></path>
        <path d="M544.12 347.11L544.12 347.11" stroke="#132e65" stroke-width="1.5"></path>
        <path d="M544.12 347.11L660.13 379.37" stroke="#132e65" stroke-width="1.5"></path>
        <path d="M544.12 347.11L560.01 511.22" stroke="#132e65" stroke-width="1.5"></path>
        <path d="M560.01 511.22L560.01 511.22" stroke="#132e65" stroke-width="1.5"></path>
        <path d="M560.01 511.22L656.66 555.38" stroke="#132e65" stroke-width="1.5"></path>
        <path d="M560.01 511.22L660.13 379.37" stroke="#132e65" stroke-width="1.5"></path>
        <path d="M560.01 511.22L692.67 655.4" stroke="#132e65" stroke-width="1.5"></path>
        <path d="M560.01 511.22L521.17 708.84" stroke="#132e65" stroke-width="1.5"></path>
        <path d="M521.17 708.84L521.17 708.84" stroke="#132e65" stroke-width="1.5"></path>
        <path d="M521.17 708.84L692.67 655.4" stroke="#132e65" stroke-width="1.5"></path>
        <path d="M707.1 213.66L707.1 213.66" stroke="#132e65" stroke-width="1.5"></path>
        <path d="M707.1 213.66L800.02 215.76" stroke="#132e65" stroke-width="1.5"></path>
        <path d="M707.1 213.66L660.13 379.37" stroke="#132e65" stroke-width="1.5"></path>
        <path d="M660.13 379.37L660.13 379.37" stroke="#132e65" stroke-width="1.5"></path>
        <path d="M656.66 555.38L656.66 555.38" stroke="#132e65" stroke-width="1.5"></path>
        <path d="M656.66 555.38L692.67 655.4" stroke="#132e65" stroke-width="1.5"></path>
        <path d="M656.66 555.38L660.13 379.37" stroke="#132e65" stroke-width="1.5"></path>
        <path d="M656.66 555.38L838.25 520.45" stroke="#132e65" stroke-width="1.5"></path>
        <path d="M656.66 555.38L521.17 708.84" stroke="#132e65" stroke-width="1.5"></path>
        <path d="M692.67 655.4L692.67 655.4" stroke="#132e65" stroke-width="1.5"></path>
        <path d="M692.67 655.4L851.26 671.14" stroke="#132e65" stroke-width="1.5"></path>
        <path d="M800.02 215.76L800.02 215.76" stroke="#132e65" stroke-width="1.5"></path>
        <path d="M800.02 215.76L860.22 366.08" stroke="#132e65" stroke-width="1.5"></path>
        <path d="M800.02 215.76L996.3 255.9" stroke="#132e65" stroke-width="1.5"></path>
        <path d="M860.22 366.08L860.22 366.08" stroke="#132e65" stroke-width="1.5"></path>
        <path d="M860.22 366.08L961.26 410.82" stroke="#132e65" stroke-width="1.5"></path>
        <path d="M860.22 366.08L838.25 520.45" stroke="#132e65" stroke-width="1.5"></path>
        <path d="M860.22 366.08L944.61 508.11" stroke="#132e65" stroke-width="1.5"></path>
        <path d="M860.22 366.08L996.3 255.9" stroke="#132e65" stroke-width="1.5"></path>
        <path d="M860.22 366.08L660.13 379.37" stroke="#132e65" stroke-width="1.5"></path>
        <path d="M838.25 520.45L838.25 520.45" stroke="#132e65" stroke-width="1.5"></path>
        <path d="M838.25 520.45L944.61 508.11" stroke="#132e65" stroke-width="1.5"></path>
        <path d="M838.25 520.45L851.26 671.14" stroke="#132e65" stroke-width="1.5"></path>
        <path d="M838.25 520.45L961.26 410.82" stroke="#132e65" stroke-width="1.5"></path>
        <path d="M851.26 671.14L851.26 671.14" stroke="#132e65" stroke-width="1.5"></path>
        <path d="M851.26 671.14L961.87 660.8" stroke="#132e65" stroke-width="1.5"></path>
        <path d="M851.26 671.14L944.61 508.11" stroke="#132e65" stroke-width="1.5"></path>
        <path d="M851.26 671.14L656.66 555.38" stroke="#132e65" stroke-width="1.5"></path>
        <path d="M851.26 671.14L1092.55 700.4" stroke="#132e65" stroke-width="1.5"></path>
        <path d="M1004.06 -102.78L1004.06 -102.78" stroke="#132e65" stroke-width="1.5"></path>
        <path d="M1004.06 -102.78L1093.25 -39.9" stroke="#132e65" stroke-width="1.5"></path>
        <path d="M1004.06 -102.78L971.09 51.22" stroke="#132e65" stroke-width="1.5"></path>
        <path d="M1004.06 -102.78L1091.22 104.14" stroke="#132e65" stroke-width="1.5"></path>
        <path d="M1004.06 -102.78L1286.84 -102.16" stroke="#132e65" stroke-width="1.5"></path>
        <path d="M1004.06 -102.78L1137.66 203.18" stroke="#132e65" stroke-width="1.5"></path>
        <path d="M971.09 51.22L971.09 51.22" stroke="#132e65" stroke-width="1.5"></path>
        <path d="M971.09 51.22L1091.22 104.14" stroke="#132e65" stroke-width="1.5"></path>
        <path d="M971.09 51.22L1093.25 -39.9" stroke="#132e65" stroke-width="1.5"></path>
        <path d="M971.09 51.22L996.3 255.9" stroke="#132e65" stroke-width="1.5"></path>
        <path d="M971.09 51.22L1137.66 203.18" stroke="#132e65" stroke-width="1.5"></path>
        <path d="M996.3 255.9L996.3 255.9" stroke="#132e65" stroke-width="1.5"></path>
        <path d="M996.3 255.9L1096.1 344.53" stroke="#132e65" stroke-width="1.5"></path>
        <path d="M996.3 255.9L1137.66 203.18" stroke="#132e65" stroke-width="1.5"></path>
        <path d="M996.3 255.9L961.26 410.82" stroke="#132e65" stroke-width="1.5"></path>
        <path d="M961.26 410.82L961.26 410.82" stroke="#132e65" stroke-width="1.5"></path>
        <path d="M961.26 410.82L944.61 508.11" stroke="#132e65" stroke-width="1.5"></path>
        <path d="M961.26 410.82L1096.1 344.53" stroke="#132e65" stroke-width="1.5"></path>
        <path d="M944.61 508.11L944.61 508.11" stroke="#132e65" stroke-width="1.5"></path>
        <path d="M944.61 508.11L961.87 660.8" stroke="#132e65" stroke-width="1.5"></path>
        <path d="M961.87 660.8L961.87 660.8" stroke="#132e65" stroke-width="1.5"></path>
        <path d="M1093.25 -39.9L1093.25 -39.9" stroke="#132e65" stroke-width="1.5"></path>
        <path d="M1093.25 -39.9L1091.22 104.14" stroke="#132e65" stroke-width="1.5"></path>
        <path d="M1091.22 104.14L1091.22 104.14" stroke="#132e65" stroke-width="1.5"></path>
        <path d="M1091.22 104.14L1137.66 203.18" stroke="#132e65" stroke-width="1.5"></path>
        <path d="M1091.22 104.14L996.3 255.9" stroke="#132e65" stroke-width="1.5"></path>
        <path d="M1091.22 104.14L1302.62 96.78" stroke="#132e65" stroke-width="1.5"></path>
        <path d="M1137.66 203.18L1137.66 203.18" stroke="#132e65" stroke-width="1.5"></path>
        <path d="M1137.66 203.18L1096.1 344.53" stroke="#132e65" stroke-width="1.5"></path>
        <path d="M1096.1 344.53L1096.1 344.53" stroke="#132e65" stroke-width="1.5"></path>
        <path d="M1096.1 344.53L1244.9 343.39" stroke="#132e65" stroke-width="1.5"></path>
        <path d="M1096.1 344.53L1115.95 538.8" stroke="#132e65" stroke-width="1.5"></path>
        <path d="M1115.95 538.8L1115.95 538.8" stroke="#132e65" stroke-width="1.5"></path>
        <path d="M1115.95 538.8L1092.55 700.4" stroke="#132e65" stroke-width="1.5"></path>
        <path d="M1115.95 538.8L1288.27 539.17" stroke="#132e65" stroke-width="1.5"></path>
        <path d="M1115.95 538.8L944.61 508.11" stroke="#132e65" stroke-width="1.5"></path>
        <path d="M1092.55 700.4L1092.55 700.4" stroke="#132e65" stroke-width="1.5"></path>
        <path d="M1092.55 700.4L961.87 660.8" stroke="#132e65" stroke-width="1.5"></path>
        <path d="M1286.84 -102.16L1286.84 -102.16" stroke="#132e65" stroke-width="1.5"></path>
        <path d="M1286.84 -102.16L1398.89 -50.85" stroke="#132e65" stroke-width="1.5"></path>
        <path d="M1286.84 -102.16L1302.62 96.78" stroke="#132e65" stroke-width="1.5"></path>
        <path d="M1286.84 -102.16L1093.25 -39.9" stroke="#132e65" stroke-width="1.5"></path>
        <path d="M1286.84 -102.16L1456.35 52.72" stroke="#132e65" stroke-width="1.5"></path>
        <path d="M1286.84 -102.16L1091.22 104.14" stroke="#132e65" stroke-width="1.5"></path>
        <path d="M1302.62 96.78L1302.62 96.78" stroke="#132e65" stroke-width="1.5"></path>
        <path d="M1302.62 96.78L1297.87 219.08" stroke="#132e65" stroke-width="1.5"></path>
        <path d="M1302.62 96.78L1394.1 220.39" stroke="#132e65" stroke-width="1.5"></path>
        <path d="M1302.62 96.78L1456.35 52.72" stroke="#132e65" stroke-width="1.5"></path>
        <path d="M1297.87 219.08L1297.87 219.08" stroke="#132e65" stroke-width="1.5"></path>
        <path d="M1297.87 219.08L1394.1 220.39" stroke="#132e65" stroke-width="1.5"></path>
        <path d="M1297.87 219.08L1244.9 343.39" stroke="#132e65" stroke-width="1.5"></path>
        <path d="M1244.9 343.39L1244.9 343.39" stroke="#132e65" stroke-width="1.5"></path>
        <path d="M1244.9 343.39L1393.9 354.72" stroke="#132e65" stroke-width="1.5"></path>
        <path d="M1244.9 343.39L1137.66 203.18" stroke="#132e65" stroke-width="1.5"></path>
        <path d="M1244.9 343.39L1394.1 220.39" stroke="#132e65" stroke-width="1.5"></path>
        <path d="M1244.9 343.39L1288.27 539.17" stroke="#132e65" stroke-width="1.5"></path>
        <path d="M1288.27 539.17L1288.27 539.17" stroke="#132e65" stroke-width="1.5"></path>
        <path d="M1288.27 539.17L1284.32 696" stroke="#132e65" stroke-width="1.5"></path>
        <path d="M1288.27 539.17L1458.07 553.22" stroke="#132e65" stroke-width="1.5"></path>
        <path d="M1284.32 696L1284.32 696" stroke="#132e65" stroke-width="1.5"></path>
        <path d="M1284.32 696L1413.19 707.81" stroke="#132e65" stroke-width="1.5"></path>
        <path d="M1284.32 696L1092.55 700.4" stroke="#132e65" stroke-width="1.5"></path>
        <path d="M1398.89 -50.85L1398.89 -50.85" stroke="#132e65" stroke-width="1.5"></path>
        <path d="M1398.89 -50.85L1456.35 52.72" stroke="#132e65" stroke-width="1.5"></path>
        <path d="M1398.89 -50.85L1302.62 96.78" stroke="#132e65" stroke-width="1.5"></path>
        <path d="M1398.89 -50.85L1548.97 65.97" stroke="#132e65" stroke-width="1.5"></path>
        <path d="M1398.89 -50.85L1583.18 -103.82" stroke="#132e65" stroke-width="1.5"></path>
        <path d="M1398.89 -50.85L1394.1 220.39" stroke="#132e65" stroke-width="1.5"></path>
        <path d="M1456.35 52.72L1456.35 52.72" stroke="#132e65" stroke-width="1.5"></path>
        <path d="M1456.35 52.72L1548.97 65.97" stroke="#132e65" stroke-width="1.5"></path>
        <path d="M1394.1 220.39L1394.1 220.39" stroke="#132e65" stroke-width="1.5"></path>
        <path d="M1394.1 220.39L1393.9 354.72" stroke="#132e65" stroke-width="1.5"></path>
        <path d="M1394.1 220.39L1542.11 188.61" stroke="#132e65" stroke-width="1.5"></path>
        <path d="M1394.1 220.39L1456.35 52.72" stroke="#132e65" stroke-width="1.5"></path>
        <path d="M1393.9 354.72L1393.9 354.72" stroke="#132e65" stroke-width="1.5"></path>
        <path d="M1393.9 354.72L1297.87 219.08" stroke="#132e65" stroke-width="1.5"></path>
        <path d="M1458.07 553.22L1458.07 553.22" stroke="#132e65" stroke-width="1.5"></path>
        <path d="M1458.07 553.22L1582.91 513.5" stroke="#132e65" stroke-width="1.5"></path>
        <path d="M1458.07 553.22L1413.19 707.81" stroke="#132e65" stroke-width="1.5"></path>
        <path d="M1458.07 553.22L1608.58 638.76" stroke="#132e65" stroke-width="1.5"></path>
        <path d="M1458.07 553.22L1561.84 405.28" stroke="#132e65" stroke-width="1.5"></path>
        <path d="M1413.19 707.81L1413.19 707.81" stroke="#132e65" stroke-width="1.5"></path>
        <path d="M1413.19 707.81L1608.58 638.76" stroke="#132e65" stroke-width="1.5"></path>
        <path d="M1583.18 -103.82L1583.18 -103.82" stroke="#132e65" stroke-width="1.5"></path>
        <path d="M1583.18 -103.82L1548.97 65.97" stroke="#132e65" stroke-width="1.5"></path>
        <path d="M1583.18 -103.82L1456.35 52.72" stroke="#132e65" stroke-width="1.5"></path>
        <path d="M1583.18 -103.82L1542.11 188.61" stroke="#132e65" stroke-width="1.5"></path>
        <path d="M1583.18 -103.82L1286.84 -102.16" stroke="#132e65" stroke-width="1.5"></path>
        <path d="M1583.18 -103.82L1302.62 96.78" stroke="#132e65" stroke-width="1.5"></path>
        <path d="M1548.97 65.97L1548.97 65.97" stroke="#132e65" stroke-width="1.5"></path>
        <path d="M1548.97 65.97L1542.11 188.61" stroke="#132e65" stroke-width="1.5"></path>
        <path d="M1548.97 65.97L1394.1 220.39" stroke="#132e65" stroke-width="1.5"></path>
        <path d="M1542.11 188.61L1542.11 188.61" stroke="#132e65" stroke-width="1.5"></path>
        <path d="M1542.11 188.61L1456.35 52.72" stroke="#132e65" stroke-width="1.5"></path>
        <path d="M1542.11 188.61L1561.84 405.28" stroke="#132e65" stroke-width="1.5"></path>
        <path d="M1542.11 188.61L1393.9 354.72" stroke="#132e65" stroke-width="1.5"></path>
        <path d="M1542.11 188.61L1297.87 219.08" stroke="#132e65" stroke-width="1.5"></path>
        <path d="M1561.84 405.28L1561.84 405.28" stroke="#132e65" stroke-width="1.5"></path>
        <path d="M1561.84 405.28L1582.91 513.5" stroke="#132e65" stroke-width="1.5"></path>
        <path d="M1561.84 405.28L1393.9 354.72" stroke="#132e65" stroke-width="1.5"></path>
        <path d="M1561.84 405.28L1608.58 638.76" stroke="#132e65" stroke-width="1.5"></path>
        <path d="M1582.91 513.5L1582.91 513.5" stroke="#132e65" stroke-width="1.5"></path>
        <path d="M1608.58 638.76L1608.58 638.76" stroke="#132e65" stroke-width="1.5"></path>
        <path d="M1608.58 638.76L1582.91 513.5" stroke="#132e65" stroke-width="1.5"></path>
        <path d="M1608.58 638.76L1284.32 696" stroke="#132e65" stroke-width="1.5"></path>
        <path d="M1608.58 638.76L1288.27 539.17" stroke="#132e65" stroke-width="1.5"></path>
        <circle r="5" cx="-58.53" cy="382.91" fill="#132e65"></circle>
        <circle r="5" cx="-89.99" cy="687.47" fill="#132e65"></circle>
        <circle r="5" cx="68.79" cy="412.08" fill="#132e65"></circle>
        <circle r="5" cx="108.13" cy="637.8" fill="#132e65"></circle>
        <circle r="5" cx="234.44" cy="395.99" fill="#132e65"></circle>
        <circle r="5" cx="211.82" cy="558.8" fill="#132e65"></circle>
        <circle r="5" cx="194.89" cy="688.32" fill="#132e65"></circle>
        <circle r="5" cx="358" cy="369.27" fill="#132e65"></circle>
        <circle r="5" cx="379.16" cy="490.21" fill="#132e65"></circle>
        <circle r="5" cx="406.74" cy="690.99" fill="#132e65"></circle>
        <circle r="5" cx="544.12" cy="347.11" fill="#132e65"></circle>
        <circle r="5" cx="560.01" cy="511.22" fill="#132e65"></circle>
        <circle r="5" cx="521.17" cy="708.84" fill="#132e65"></circle>
        <circle r="5" cx="707.1" cy="213.66" fill="#132e65"></circle>
        <circle r="5" cx="660.13" cy="379.37" fill="#132e65"></circle>
        <circle r="5" cx="656.66" cy="555.38" fill="#132e65"></circle>
        <circle r="5" cx="692.67" cy="655.4" fill="#132e65"></circle>
        <circle r="5" cx="800.02" cy="215.76" fill="#132e65"></circle>
        <circle r="5" cx="860.22" cy="366.08" fill="#132e65"></circle>
        <circle r="5" cx="838.25" cy="520.45" fill="#132e65"></circle>
        <circle r="5" cx="851.26" cy="671.14" fill="#132e65"></circle>
        <circle r="5" cx="1004.06" cy="-102.78" fill="#132e65"></circle>
        <circle r="5" cx="971.09" cy="51.22" fill="#132e65"></circle>
        <circle r="5" cx="996.3" cy="255.9" fill="#132e65"></circle>
        <circle r="5" cx="961.26" cy="410.82" fill="#132e65"></circle>
        <circle r="5" cx="944.61" cy="508.11" fill="#132e65"></circle>
        <circle r="5" cx="961.87" cy="660.8" fill="#132e65"></circle>
        <circle r="5" cx="1093.25" cy="-39.9" fill="#132e65"></circle>
        <circle r="5" cx="1091.22" cy="104.14" fill="#132e65"></circle>
        <circle r="5" cx="1137.66" cy="203.18" fill="#132e65"></circle>
        <circle r="5" cx="1096.1" cy="344.53" fill="#132e65"></circle>
        <circle r="5" cx="1115.95" cy="538.8" fill="#132e65"></circle>
        <circle r="5" cx="1092.55" cy="700.4" fill="#132e65"></circle>
        <circle r="5" cx="1286.84" cy="-102.16" fill="#132e65"></circle>
        <circle r="5" cx="1302.62" cy="96.78" fill="#132e65"></circle>
        <circle r="5" cx="1297.87" cy="219.08" fill="#132e65"></circle>
        <circle r="5" cx="1244.9" cy="343.39" fill="#132e65"></circle>
        <circle r="5" cx="1288.27" cy="539.17" fill="#132e65"></circle>
        <circle r="5" cx="1284.32" cy="696" fill="#132e65"></circle>
        <circle r="5" cx="1398.89" cy="-50.85" fill="#132e65"></circle>
        <circle r="5" cx="1456.35" cy="52.72" fill="#132e65"></circle>
        <circle r="5" cx="1394.1" cy="220.39" fill="#132e65"></circle>
        <circle r="5" cx="1393.9" cy="354.72" fill="#132e65"></circle>
        <circle r="5" cx="1458.07" cy="553.22" fill="#132e65"></circle>
        <circle r="5" cx="1413.19" cy="707.81" fill="#132e65"></circle>
        <circle r="5" cx="1583.18" cy="-103.82" fill="#132e65"></circle>
        <circle r="5" cx="1548.97" cy="65.97" fill="#132e65"></circle>
        <circle r="5" cx="1542.11" cy="188.61" fill="#132e65"></circle>
        <circle r="5" cx="1561.84" cy="405.28" fill="#132e65"></circle>
        <circle r="5" cx="1582.91" cy="513.5" fill="#132e65"></circle>
        <circle r="5" cx="1608.58" cy="638.76" fill="#132e65"></circle>
        <path d="M519.33 507.75L519.33 507.75" stroke="hsl(228.5, 77.2%, 51.5%)" stroke-width="1.5"></path>
        <path d="M519.33 507.75L346.44 500.95" stroke="hsl(228.5, 77.2%, 51.5%)" stroke-width="1.5"></path>
        <path d="M519.33 507.75L645.69 380.56" stroke="hsl(228.5, 77.2%, 51.5%)" stroke-width="1.5"></path>
        <path d="M519.33 507.75L397.15 649.19" stroke="hsl(228.5, 77.2%, 51.5%)" stroke-width="1.5"></path>
        <path d="M519.33 507.75L710.55 518.5" stroke="hsl(228.5, 77.2%, 51.5%)" stroke-width="1.5"></path>
        <path d="M519.33 507.75L515.1 699.87" stroke="hsl(228.5, 77.2%, 51.5%)" stroke-width="1.5"></path>
        <path d="M519.33 507.75L687.32 656.2" stroke="hsl(228.5, 77.2%, 51.5%)" stroke-width="1.5"></path>
        <path d="M687.32 656.2L687.32 656.2" stroke="hsl(228.5, 77.2%, 51.5%)" stroke-width="1.5"></path>
        <path d="M687.32 656.2L816 704.92" stroke="hsl(228.5, 77.2%, 51.5%)" stroke-width="1.5"></path>
        <path d="M687.32 656.2L710.55 518.5" stroke="hsl(228.5, 77.2%, 51.5%)" stroke-width="1.5"></path>
        <path d="M687.32 656.2L515.1 699.87" stroke="hsl(228.5, 77.2%, 51.5%)" stroke-width="1.5"></path>
        <path d="M687.32 656.2L807.02 494.73" stroke="hsl(228.5, 77.2%, 51.5%)" stroke-width="1.5"></path>
        <path d="M1254.44 685.43L1254.44 685.43" stroke="hsl(228.5, 77.2%, 51.5%)" stroke-width="1.5"></path>
        <path d="M1254.44 685.43L1121.35 663.78" stroke="hsl(228.5, 77.2%, 51.5%)" stroke-width="1.5"></path>
        <path d="M1254.44 685.43L1297.91 513.1" stroke="hsl(228.5, 77.2%, 51.5%)" stroke-width="1.5"></path>
        <path d="M1254.44 685.43L1433.56 670.18" stroke="hsl(228.5, 77.2%, 51.5%)" stroke-width="1.5"></path>
        <path d="M-102.06 519.71L-102.06 519.71" stroke="hsl(228.5, 77.2%, 51.5%)" stroke-width="1.5"></path>
        <path d="M-102.06 519.71L-43.71 641.34" stroke="hsl(228.5, 77.2%, 51.5%)" stroke-width="1.5"></path>
        <path d="M-102.06 519.71L60.21 561.37" stroke="hsl(228.5, 77.2%, 51.5%)" stroke-width="1.5"></path>
        <path d="M-102.06 519.71L66.22 679.23" stroke="hsl(228.5, 77.2%, 51.5%)" stroke-width="1.5"></path>
        <path d="M-102.06 519.71L217.21 489.22" stroke="hsl(228.5, 77.2%, 51.5%)" stroke-width="1.5"></path>
        <path d="M-102.06 519.71L228.43 665.42" stroke="hsl(228.5, 77.2%, 51.5%)" stroke-width="1.5"></path>
        <path d="M-43.71 641.34L-43.71 641.34" stroke="hsl(228.5, 77.2%, 51.5%)" stroke-width="1.5"></path>
        <path d="M-43.71 641.34L66.22 679.23" stroke="hsl(228.5, 77.2%, 51.5%)" stroke-width="1.5"></path>
        <path d="M-43.71 641.34L60.21 561.37" stroke="hsl(228.5, 77.2%, 51.5%)" stroke-width="1.5"></path>
        <path d="M60.21 561.37L60.21 561.37" stroke="hsl(228.5, 77.2%, 51.5%)" stroke-width="1.5"></path>
        <path d="M60.21 561.37L66.22 679.23" stroke="hsl(228.5, 77.2%, 51.5%)" stroke-width="1.5"></path>
        <path d="M66.22 679.23L66.22 679.23" stroke="hsl(228.5, 77.2%, 51.5%)" stroke-width="1.5"></path>
        <path d="M217.21 489.22L217.21 489.22" stroke="hsl(228.5, 77.2%, 51.5%)" stroke-width="1.5"></path>
        <path d="M217.21 489.22L346.44 500.95" stroke="hsl(228.5, 77.2%, 51.5%)" stroke-width="1.5"></path>
        <path d="M217.21 489.22L60.21 561.37" stroke="hsl(228.5, 77.2%, 51.5%)" stroke-width="1.5"></path>
        <path d="M217.21 489.22L228.43 665.42" stroke="hsl(228.5, 77.2%, 51.5%)" stroke-width="1.5"></path>
        <path d="M217.21 489.22L397.15 649.19" stroke="hsl(228.5, 77.2%, 51.5%)" stroke-width="1.5"></path>
        <path d="M217.21 489.22L66.22 679.23" stroke="hsl(228.5, 77.2%, 51.5%)" stroke-width="1.5"></path>
        <path d="M217.21 489.22L-43.71 641.34" stroke="hsl(228.5, 77.2%, 51.5%)" stroke-width="1.5"></path>
        <path d="M228.43 665.42L228.43 665.42" stroke="hsl(228.5, 77.2%, 51.5%)" stroke-width="1.5"></path>
        <path d="M228.43 665.42L66.22 679.23" stroke="hsl(228.5, 77.2%, 51.5%)" stroke-width="1.5"></path>
        <path d="M228.43 665.42L397.15 649.19" stroke="hsl(228.5, 77.2%, 51.5%)" stroke-width="1.5"></path>
        <path d="M346.44 500.95L346.44 500.95" stroke="hsl(228.5, 77.2%, 51.5%)" stroke-width="1.5"></path>
        <path d="M346.44 500.95L397.15 649.19" stroke="hsl(228.5, 77.2%, 51.5%)" stroke-width="1.5"></path>
        <path d="M346.44 500.95L228.43 665.42" stroke="hsl(228.5, 77.2%, 51.5%)" stroke-width="1.5"></path>
        <path d="M346.44 500.95L515.1 699.87" stroke="hsl(228.5, 77.2%, 51.5%)" stroke-width="1.5"></path>
        <path d="M397.15 649.19L397.15 649.19" stroke="hsl(228.5, 77.2%, 51.5%)" stroke-width="1.5"></path>
        <path d="M397.15 649.19L515.1 699.87" stroke="hsl(228.5, 77.2%, 51.5%)" stroke-width="1.5"></path>
        <path d="M515.1 699.87L515.1 699.87" stroke="hsl(228.5, 77.2%, 51.5%)" stroke-width="1.5"></path>
        <path d="M645.69 380.56L645.69 380.56" stroke="hsl(228.5, 77.2%, 51.5%)" stroke-width="1.5"></path>
        <path d="M645.69 380.56L710.55 518.5" stroke="hsl(228.5, 77.2%, 51.5%)" stroke-width="1.5"></path>
        <path d="M645.69 380.56L817.3 362.71" stroke="hsl(228.5, 77.2%, 51.5%)" stroke-width="1.5"></path>
        <path d="M645.69 380.56L807.02 494.73" stroke="hsl(228.5, 77.2%, 51.5%)" stroke-width="1.5"></path>
        <path d="M645.69 380.56L687.32 656.2" stroke="hsl(228.5, 77.2%, 51.5%)" stroke-width="1.5"></path>
        <path d="M645.69 380.56L346.44 500.95" stroke="hsl(228.5, 77.2%, 51.5%)" stroke-width="1.5"></path>
        <path d="M710.55 518.5L710.55 518.5" stroke="hsl(228.5, 77.2%, 51.5%)" stroke-width="1.5"></path>
        <path d="M710.55 518.5L807.02 494.73" stroke="hsl(228.5, 77.2%, 51.5%)" stroke-width="1.5"></path>
        <path d="M817.3 362.71L817.3 362.71" stroke="hsl(228.5, 77.2%, 51.5%)" stroke-width="1.5"></path>
        <path d="M817.3 362.71L807.02 494.73" stroke="hsl(228.5, 77.2%, 51.5%)" stroke-width="1.5"></path>
        <path d="M807.02 494.73L807.02 494.73" stroke="hsl(228.5, 77.2%, 51.5%)" stroke-width="1.5"></path>
        <path d="M816 704.92L816 704.92" stroke="hsl(228.5, 77.2%, 51.5%)" stroke-width="1.5"></path>
        <path d="M816 704.92L991.05 662.26" stroke="hsl(228.5, 77.2%, 51.5%)" stroke-width="1.5"></path>
        <path d="M816 704.92L807.02 494.73" stroke="hsl(228.5, 77.2%, 51.5%)" stroke-width="1.5"></path>
        <path d="M988.99 380.15L988.99 380.15" stroke="hsl(228.5, 77.2%, 51.5%)" stroke-width="1.5"></path>
        <path d="M988.99 380.15L817.3 362.71" stroke="hsl(228.5, 77.2%, 51.5%)" stroke-width="1.5"></path>
        <path d="M988.99 380.15L1160.13 343.69" stroke="hsl(228.5, 77.2%, 51.5%)" stroke-width="1.5"></path>
        <path d="M991.05 662.26L991.05 662.26" stroke="hsl(228.5, 77.2%, 51.5%)" stroke-width="1.5"></path>
        <path d="M991.05 662.26L1121.35 663.78" stroke="hsl(228.5, 77.2%, 51.5%)" stroke-width="1.5"></path>
        <path d="M991.05 662.26L1092.71 522.19" stroke="hsl(228.5, 77.2%, 51.5%)" stroke-width="1.5"></path>
        <path d="M991.05 662.26L807.02 494.73" stroke="hsl(228.5, 77.2%, 51.5%)" stroke-width="1.5"></path>
        <path d="M1143.37 196.42L1143.37 196.42" stroke="hsl(228.5, 77.2%, 51.5%)" stroke-width="1.5"></path>
        <path d="M1143.37 196.42L1268.3 196.33" stroke="hsl(228.5, 77.2%, 51.5%)" stroke-width="1.5"></path>
        <path d="M1143.37 196.42L1160.13 343.69" stroke="hsl(228.5, 77.2%, 51.5%)" stroke-width="1.5"></path>
        <path d="M1143.37 196.42L1308.76 47.87" stroke="hsl(228.5, 77.2%, 51.5%)" stroke-width="1.5"></path>
        <path d="M1143.37 196.42L1309.67 354.75" stroke="hsl(228.5, 77.2%, 51.5%)" stroke-width="1.5"></path>
        <path d="M1143.37 196.42L988.99 380.15" stroke="hsl(228.5, 77.2%, 51.5%)" stroke-width="1.5"></path>
        <path d="M1160.13 343.69L1160.13 343.69" stroke="hsl(228.5, 77.2%, 51.5%)" stroke-width="1.5"></path>
        <path d="M1160.13 343.69L1309.67 354.75" stroke="hsl(228.5, 77.2%, 51.5%)" stroke-width="1.5"></path>
        <path d="M1160.13 343.69L1268.3 196.33" stroke="hsl(228.5, 77.2%, 51.5%)" stroke-width="1.5"></path>
        <path d="M1092.71 522.19L1092.71 522.19" stroke="hsl(228.5, 77.2%, 51.5%)" stroke-width="1.5"></path>
        <path d="M1092.71 522.19L1121.35 663.78" stroke="hsl(228.5, 77.2%, 51.5%)" stroke-width="1.5"></path>
        <path d="M1092.71 522.19L988.99 380.15" stroke="hsl(228.5, 77.2%, 51.5%)" stroke-width="1.5"></path>
        <path d="M1092.71 522.19L1160.13 343.69" stroke="hsl(228.5, 77.2%, 51.5%)" stroke-width="1.5"></path>
        <path d="M1121.35 663.78L1121.35 663.78" stroke="hsl(228.5, 77.2%, 51.5%)" stroke-width="1.5"></path>
        <path d="M1286.16 -104.41L1286.16 -104.41" stroke="hsl(228.5, 77.2%, 51.5%)" stroke-width="1.5"></path>
        <path d="M1286.16 -104.41L1417.21 -55.56" stroke="hsl(228.5, 77.2%, 51.5%)" stroke-width="1.5"></path>
        <path d="M1286.16 -104.41L1308.76 47.87" stroke="hsl(228.5, 77.2%, 51.5%)" stroke-width="1.5"></path>
        <path d="M1286.16 -104.41L1455.71 39.33" stroke="hsl(228.5, 77.2%, 51.5%)" stroke-width="1.5"></path>
        <path d="M1286.16 -104.41L1268.3 196.33" stroke="hsl(228.5, 77.2%, 51.5%)" stroke-width="1.5"></path>
        <path d="M1286.16 -104.41L1592.51 -91.82" stroke="hsl(228.5, 77.2%, 51.5%)" stroke-width="1.5"></path>
        <path d="M1286.16 -104.41L1143.37 196.42" stroke="hsl(228.5, 77.2%, 51.5%)" stroke-width="1.5"></path>
        <path d="M1308.76 47.87L1308.76 47.87" stroke="hsl(228.5, 77.2%, 51.5%)" stroke-width="1.5"></path>
        <path d="M1308.76 47.87L1455.71 39.33" stroke="hsl(228.5, 77.2%, 51.5%)" stroke-width="1.5"></path>
        <path d="M1308.76 47.87L1417.21 -55.56" stroke="hsl(228.5, 77.2%, 51.5%)" stroke-width="1.5"></path>
        <path d="M1308.76 47.87L1268.3 196.33" stroke="hsl(228.5, 77.2%, 51.5%)" stroke-width="1.5"></path>
        <path d="M1268.3 196.33L1268.3 196.33" stroke="hsl(228.5, 77.2%, 51.5%)" stroke-width="1.5"></path>
        <path d="M1268.3 196.33L1406.09 249.53" stroke="hsl(228.5, 77.2%, 51.5%)" stroke-width="1.5"></path>
        <path d="M1268.3 196.33L1309.67 354.75" stroke="hsl(228.5, 77.2%, 51.5%)" stroke-width="1.5"></path>
        <path d="M1309.67 354.75L1309.67 354.75" stroke="hsl(228.5, 77.2%, 51.5%)" stroke-width="1.5"></path>
        <path d="M1309.67 354.75L1390.86 363.48" stroke="hsl(228.5, 77.2%, 51.5%)" stroke-width="1.5"></path>
        <path d="M1309.67 354.75L1406.09 249.53" stroke="hsl(228.5, 77.2%, 51.5%)" stroke-width="1.5"></path>
        <path d="M1309.67 354.75L1297.91 513.1" stroke="hsl(228.5, 77.2%, 51.5%)" stroke-width="1.5"></path>
        <path d="M1309.67 354.75L1390.85 505.57" stroke="hsl(228.5, 77.2%, 51.5%)" stroke-width="1.5"></path>
        <path d="M1297.91 513.1L1297.91 513.1" stroke="hsl(228.5, 77.2%, 51.5%)" stroke-width="1.5"></path>
        <path d="M1297.91 513.1L1390.85 505.57" stroke="hsl(228.5, 77.2%, 51.5%)" stroke-width="1.5"></path>
        <path d="M1297.91 513.1L1390.86 363.48" stroke="hsl(228.5, 77.2%, 51.5%)" stroke-width="1.5"></path>
        <path d="M1297.91 513.1L1092.71 522.19" stroke="hsl(228.5, 77.2%, 51.5%)" stroke-width="1.5"></path>
        <path d="M1297.91 513.1L1433.56 670.18" stroke="hsl(228.5, 77.2%, 51.5%)" stroke-width="1.5"></path>
        <path d="M1417.21 -55.56L1417.21 -55.56" stroke="hsl(228.5, 77.2%, 51.5%)" stroke-width="1.5"></path>
        <path d="M1417.21 -55.56L1455.71 39.33" stroke="hsl(228.5, 77.2%, 51.5%)" stroke-width="1.5"></path>
        <path d="M1455.71 39.33L1455.71 39.33" stroke="hsl(228.5, 77.2%, 51.5%)" stroke-width="1.5"></path>
        <path d="M1455.71 39.33L1571.17 97.06" stroke="hsl(228.5, 77.2%, 51.5%)" stroke-width="1.5"></path>
        <path d="M1455.71 39.33L1592.51 -91.82" stroke="hsl(228.5, 77.2%, 51.5%)" stroke-width="1.5"></path>
        <path d="M1455.71 39.33L1406.09 249.53" stroke="hsl(228.5, 77.2%, 51.5%)" stroke-width="1.5"></path>
        <path d="M1406.09 249.53L1406.09 249.53" stroke="hsl(228.5, 77.2%, 51.5%)" stroke-width="1.5"></path>
        <path d="M1406.09 249.53L1390.86 363.48" stroke="hsl(228.5, 77.2%, 51.5%)" stroke-width="1.5"></path>
        <path d="M1406.09 249.53L1571.37 243.06" stroke="hsl(228.5, 77.2%, 51.5%)" stroke-width="1.5"></path>
        <path d="M1406.09 249.53L1308.76 47.87" stroke="hsl(228.5, 77.2%, 51.5%)" stroke-width="1.5"></path>
        <path d="M1390.86 363.48L1390.86 363.48" stroke="hsl(228.5, 77.2%, 51.5%)" stroke-width="1.5"></path>
        <path d="M1390.86 363.48L1390.85 505.57" stroke="hsl(228.5, 77.2%, 51.5%)" stroke-width="1.5"></path>
        <path d="M1390.85 505.57L1390.85 505.57" stroke="hsl(228.5, 77.2%, 51.5%)" stroke-width="1.5"></path>
        <path d="M1390.85 505.57L1433.56 670.18" stroke="hsl(228.5, 77.2%, 51.5%)" stroke-width="1.5"></path>
        <path d="M1433.56 670.18L1433.56 670.18" stroke="hsl(228.5, 77.2%, 51.5%)" stroke-width="1.5"></path>
        <path d="M1433.56 670.18L1571.46 678.69" stroke="hsl(228.5, 77.2%, 51.5%)" stroke-width="1.5"></path>
        <path d="M1592.51 -91.82L1592.51 -91.82" stroke="hsl(228.5, 77.2%, 51.5%)" stroke-width="1.5"></path>
        <path d="M1592.51 -91.82L1417.21 -55.56" stroke="hsl(228.5, 77.2%, 51.5%)" stroke-width="1.5"></path>
        <path d="M1592.51 -91.82L1571.17 97.06" stroke="hsl(228.5, 77.2%, 51.5%)" stroke-width="1.5"></path>
        <path d="M1571.17 97.06L1571.17 97.06" stroke="hsl(228.5, 77.2%, 51.5%)" stroke-width="1.5"></path>
        <path d="M1571.17 97.06L1571.37 243.06" stroke="hsl(228.5, 77.2%, 51.5%)" stroke-width="1.5"></path>
        <path d="M1571.17 97.06L1417.21 -55.56" stroke="hsl(228.5, 77.2%, 51.5%)" stroke-width="1.5"></path>
        <path d="M1571.37 243.06L1571.37 243.06" stroke="hsl(228.5, 77.2%, 51.5%)" stroke-width="1.5"></path>
        <path d="M1571.37 243.06L1605.39 412" stroke="hsl(228.5, 77.2%, 51.5%)" stroke-width="1.5"></path>
        <path d="M1605.39 412L1605.39 412" stroke="hsl(228.5, 77.2%, 51.5%)" stroke-width="1.5"></path>
        <path d="M1605.39 412L1560.25 488.57" stroke="hsl(228.5, 77.2%, 51.5%)" stroke-width="1.5"></path>
        <path d="M1605.39 412L1390.86 363.48" stroke="hsl(228.5, 77.2%, 51.5%)" stroke-width="1.5"></path>
        <path d="M1560.25 488.57L1560.25 488.57" stroke="hsl(228.5, 77.2%, 51.5%)" stroke-width="1.5"></path>
        <path d="M1560.25 488.57L1390.85 505.57" stroke="hsl(228.5, 77.2%, 51.5%)" stroke-width="1.5"></path>
        <path d="M1560.25 488.57L1571.46 678.69" stroke="hsl(228.5, 77.2%, 51.5%)" stroke-width="1.5"></path>
        <path d="M1560.25 488.57L1390.86 363.48" stroke="hsl(228.5, 77.2%, 51.5%)" stroke-width="1.5"></path>
        <path d="M1560.25 488.57L1433.56 670.18" stroke="hsl(228.5, 77.2%, 51.5%)" stroke-width="1.5"></path>
        <path d="M1560.25 488.57L1571.37 243.06" stroke="hsl(228.5, 77.2%, 51.5%)" stroke-width="1.5"></path>
        <path d="M1571.46 678.69L1571.46 678.69" stroke="hsl(228.5, 77.2%, 51.5%)" stroke-width="1.5"></path>
        <circle r="25" cx="519.33" cy="507.75" fill="url(#SvgjsRadialGradient1013)"></circle>
        <circle r="25" cx="687.32" cy="656.2" fill="url(#SvgjsRadialGradient1013)"></circle>
        <circle r="25" cx="1254.44" cy="685.43" fill="url(#SvgjsRadialGradient1013)"></circle>
        <circle r="5" cx="-102.06" cy="519.71" fill="#8b9ad9"></circle>
        <circle r="5" cx="-43.71" cy="641.34" fill="#8b9ad9"></circle>
        <circle r="5" cx="60.21" cy="561.37" fill="#8b9ad9"></circle>
        <circle r="5" cx="66.22" cy="679.23" fill="#8b9ad9"></circle>
        <circle r="5" cx="217.21" cy="489.22" fill="#8b9ad9"></circle>
        <circle r="5" cx="228.43" cy="665.42" fill="#8b9ad9"></circle>
        <circle r="5" cx="346.44" cy="500.95" fill="#8b9ad9"></circle>
        <circle r="5" cx="397.15" cy="649.19" fill="#8b9ad9"></circle>
        <circle r="5" cx="515.1" cy="699.87" fill="#8b9ad9"></circle>
        <circle r="5" cx="645.69" cy="380.56" fill="#8b9ad9"></circle>
        <circle r="5" cx="710.55" cy="518.5" fill="#8b9ad9"></circle>
        <circle r="5" cx="817.3" cy="362.71" fill="#8b9ad9"></circle>
        <circle r="5" cx="807.02" cy="494.73" fill="#8b9ad9"></circle>
        <circle r="5" cx="816" cy="704.92" fill="#8b9ad9"></circle>
        <circle r="5" cx="988.99" cy="380.15" fill="#8b9ad9"></circle>
        <circle r="5" cx="991.05" cy="662.26" fill="#8b9ad9"></circle>
        <circle r="5" cx="1143.37" cy="196.42" fill="#8b9ad9"></circle>
        <circle r="5" cx="1160.13" cy="343.69" fill="#8b9ad9"></circle>
        <circle r="5" cx="1092.71" cy="522.19" fill="#8b9ad9"></circle>
        <circle r="5" cx="1121.35" cy="663.78" fill="#8b9ad9"></circle>
        <circle r="5" cx="1286.16" cy="-104.41" fill="#8b9ad9"></circle>
        <circle r="5" cx="1308.76" cy="47.87" fill="#8b9ad9"></circle>
        <circle r="5" cx="1268.3" cy="196.33" fill="#8b9ad9"></circle>
        <circle r="5" cx="1309.67" cy="354.75" fill="#8b9ad9"></circle>
        <circle r="5" cx="1297.91" cy="513.1" fill="#8b9ad9"></circle>
        <circle r="5" cx="1417.21" cy="-55.56" fill="#8b9ad9"></circle>
        <circle r="5" cx="1455.71" cy="39.33" fill="#8b9ad9"></circle>
        <circle r="5" cx="1406.09" cy="249.53" fill="#8b9ad9"></circle>
        <circle r="5" cx="1390.86" cy="363.48" fill="#8b9ad9"></circle>
        <circle r="5" cx="1390.85" cy="505.57" fill="#8b9ad9"></circle>
        <circle r="5" cx="1433.56" cy="670.18" fill="#8b9ad9"></circle>
        <circle r="5" cx="1592.51" cy="-91.82" fill="#8b9ad9"></circle>
        <circle r="5" cx="1571.17" cy="97.06" fill="#8b9ad9"></circle>
        <circle r="5" cx="1571.37" cy="243.06" fill="#8b9ad9"></circle>
        <circle r="5" cx="1605.39" cy="412" fill="#8b9ad9"></circle>
        <circle r="5" cx="1560.25" cy="488.57" fill="#8b9ad9"></circle>
        <circle r="5" cx="1571.46" cy="678.69" fill="#8b9ad9"></circle>
    </g>
    <defs>
        <mask id="SvgjsMask1012">
            <rect width="1440" height="560" fill="#ffffff"></rect>
        </mask>
        <radialGradient id="SvgjsRadialGradient1013">
            <stop stop-color="#ffffff" offset="0.1"></stop>
            <stop stop-color="#1735b3" offset="0.2"></stop>
            <stop stop-color="rgba(23, 53, 179, 0)" offset="1"></stop>
        </radialGradient>
    </defs>
</svg>