<?xml version="1.0" standalone="no"?><svg xmlns:xlink="http://www.w3.org/1999/xlink" xmlns="http://www.w3.org/2000/svg" viewBox="0 0 1000 545.4578860578667" preserveAspectRatio="xMaxYMax slice"><g transform="scale(1.1483323917007722)"><rect x="0" y="0" width="870.8333333333334" height="475" fill="#ffffff"/><rect x="0" y="0" width="79.17" height="79.17" fill="#cdd6f9"/><rect x="0" y="0" width="79.17" height="79.17" fill="#ffd3de"/><rect x="79.17" y="0" width="79.17" height="79.17" fill="#c3cdf7"/><polygon points="79.17,0 158.34,0 158.34,79.17" fill="#ff6388"/><rect x="158.33" y="0" width="79.17" height="79.17" fill="#ff89a5"/><path d="M 158.33 0 A 79.17 79.17 0 0 1  237.5 79.17 L 158.33 0 A 79.17 79.17 0 0 0 237.5 79.17" fill="#2247e2"/><rect x="237.5" y="0" width="79.16666666666667" height="79.16666666666667" fill="#ffffff"/><rect x="237.5" y="0" width="39.58" height="39.58" fill="#ffe7ed"/><polygon points="277.08,0 277.08,39.58 237.5,39.58" fill="#3254e4"/><rect x="277.08" y="0" width="39.58" height="39.58" fill="#ff7092"/><polygon points="277.08,0 316.65999999999997,39.58 277.08,39.58" fill="#ffd6df"/><rect x="237.5" y="39.58" width="39.58" height="39.58" fill="#ffa7bc"/><polygon points="237.5,39.58 277.08,39.58 277.08,79.16" fill="#5370e9"/><rect x="277.08" y="39.58" width="39.58" height="39.58" fill="#ff819f"/><polygon points="277.08,39.58 316.65999999999997,39.58 277.08,79.16" fill="#c7d0f8"/><rect x="316.67" y="0" width="79.17" height="79.17" fill="#5370e9"/><path d="M 316.67 79.17 A 79.17 79.17 0 0 1  395.84000000000003 0 L 395.84000000000003 79.17" fill="#ffecf0"/><rect x="395.83333333333337" y="0" width="79.16666666666667" height="79.16666666666667" fill="#ffffff"/><rect x="395.83" y="0" width="39.58" height="39.58" fill="#a3b2f3"/><polygon points="435.40999999999997,0 435.40999999999997,39.58 395.83,39.58" fill="#a1b1f3"/><rect x="435.42" y="0" width="39.58" height="39.58" fill="#617bea"/><polygon points="435.42,0 475,39.58 435.42,39.58" fill="#ff4974"/><rect x="395.83" y="39.58" width="39.58" height="39.58" fill="#ffb9c9"/><polygon points="395.83,39.58 435.40999999999997,39.58 435.40999999999997,79.16" fill="#bcc7f6"/><rect x="435.42" y="39.58" width="39.58" height="39.58" fill="#ffb2c4"/><polygon points="435.42,39.58 475,39.58 435.42,79.16" fill="#4a69e8"/><rect x="475" y="0" width="79.17" height="79.17" fill="#ff668b"/><path d="M 475 79.17 A 79.17 79.17 0 0 1  554.17 0 L 475 79.17 A 79.17 79.17 0 0 0 554.17 0" fill="#4a68e7"/><rect x="554.17" y="0" width="79.17" height="79.17" fill="#3557e5"/><polygon points="554.17,0 633.3399999999999,0 554.17,79.17" fill="#90a3f1"/><rect x="633.3333333333334" y="0" width="79.16666666666667" height="79.16666666666667" fill="#ffffff"/><rect x="633.33" y="0" width="39.58" height="39.58" fill="#1e44e2"/><polygon points="672.9100000000001,0 672.9100000000001,39.58 633.33,39.58" fill="#879bef"/><rect x="672.92" y="0" width="39.58" height="39.58" fill="#ffdae2"/><polygon points="672.92,0 712.5,39.58 672.92,39.58" fill="#ff3a69"/><rect x="633.33" y="39.58" width="39.58" height="39.58" fill="#ff527b"/><polygon points="633.33,39.58 672.9100000000001,39.58 633.33,79.16" fill="#5b76ea"/><rect x="672.92" y="39.58" width="39.58" height="39.58" fill="#fff4f7"/><polygon points="672.92,39.58 712.5,39.58 712.5,79.16" fill="#cdd5f8"/><rect x="712.5" y="0" width="79.16666666666667" height="79.16666666666667" fill="#ffffff"/><rect x="712.5" y="0" width="39.58" height="39.58" fill="#4e6ce8"/><path d="M 712.5 39.58 A 39.58 39.58 0 0 0 752.08 0 L 712.5 0" fill="#f1f3fd"/><rect x="752.08" y="0" width="39.58" height="39.58" fill="#ffb9c9"/><path d="M 752.08 0 A 39.58 39.58 0 0 0 791.6600000000001 39.58 L 791.6600000000001 0" fill="#ff9cb3"/><rect x="712.5" y="39.58" width="39.58" height="39.58" fill="#ff7a99"/><path d="M 712.5 39.58 A 39.58 39.58 0 0 1 752.08 79.16 L 712.5 79.16" fill="#ffcad7"/><rect x="752.08" y="39.58" width="39.58" height="39.58" fill="#ff4a75"/><path d="M 752.08 79.16 A 39.58 39.58 0 0 1  791.6600000000001 39.58 L 791.6600000000001 79.16" fill="#ffbfce"/><rect x="791.67" y="0" width="79.17" height="79.17" fill="#96a8f1"/><path d="M 791.67 0 A 79.17 79.17 0 0 0 870.8399999999999 79.17 L 870.8399999999999 0" fill="#4564e7"/><rect x="0" y="79.16666666666667" width="79.16666666666667" height="79.16666666666667" fill="#ffffff"/><rect x="0" y="79.17" width="39.58" height="39.58" fill="#fff1f4"/><circle cx="19.79" cy="98.96000000000001" r="19.79" fill="#ff3e6c"/><rect x="39.58" y="79.17" width="39.58" height="39.58" fill="#ff678b"/><rect x="39.58" y="79.17" width="39.58" height="39.58" fill="#6e87ec"/><rect x="0" y="118.75" width="39.58" height="39.58" fill="#5d79ea"/><circle cx="19.79" cy="138.54" r="19.79" fill="#e2e7fb"/><rect x="39.58" y="118.75" width="39.58" height="39.58" fill="#ff4975"/><rect x="39.58" y="118.75" width="39.58" height="39.58" fill="#ffbfce"/><rect x="79.17" y="79.17" width="79.17" height="79.17" fill="#ffc6d3"/><rect x="79.17" y="79.17" width="79.17" height="79.17" fill="#4867e7"/><rect x="158.33333333333334" y="79.16666666666667" width="79.16666666666667" height="79.16666666666667" fill="#ffffff"/><rect x="158.33" y="79.17" width="39.58" height="39.58" fill="#4968e7"/><path d="M 158.33 79.17 A 39.58 39.58 0 0 1 197.91000000000003 118.75 L 158.33 118.75" fill="#4f6de8"/><rect x="197.92" y="79.17" width="39.58" height="39.58" fill="#7b91ee"/><path d="M 197.92 118.75 A 39.58 39.58 0 0 1  237.5 79.17 L 237.5 118.75" fill="#fff8f9"/><rect x="158.33" y="118.75" width="39.58" height="39.58" fill="#ffa5ba"/><path d="M 158.33 158.32999999999998 A 39.58 39.58 0 0 0 197.91000000000003 118.75 L 158.33 118.75" fill="#5d78ea"/><rect x="197.92" y="118.75" width="39.58" height="39.58" fill="#ffc7d4"/><path d="M 197.92 118.75 A 39.58 39.58 0 0 0 237.5 158.32999999999998 L 237.5 118.75" fill="#6b84ec"/><rect x="237.5" y="79.17" width="79.17" height="79.17" fill="#95a7f1"/><polygon points="237.5,79.17 316.67,79.17 316.67,158.34" fill="#ff6489"/><rect x="316.6666666666667" y="79.16666666666667" width="79.16666666666667" height="79.16666666666667" fill="#ffffff"/><rect x="316.67" y="79.17" width="39.58" height="39.58" fill="#ffcbd7"/><path d="M 316.67 79.17 A 39.58 39.58 0 0 0 356.25 118.75 L 356.25 79.17" fill="#ffb8c9"/><rect x="356.25" y="79.17" width="39.58" height="39.58" fill="#3759e5"/><path d="M 356.25 118.75 A 39.58 39.58 0 0 0 395.83 79.17 L 356.25 79.17" fill="#2b4ee3"/><rect x="316.67" y="118.75" width="39.58" height="39.58" fill="#fcfdff"/><path d="M 316.67 158.32999999999998 A 39.58 39.58 0 0 1  356.25 118.75 L 356.25 158.32999999999998" fill="#94a6f1"/><rect x="356.25" y="118.75" width="39.58" height="39.58" fill="#8a9ef0"/><path d="M 356.25 118.75 A 39.58 39.58 0 0 1 395.83 158.32999999999998 L 356.25 158.32999999999998" fill="#e8ecfc"/><rect x="395.83" y="79.17" width="79.17" height="79.17" fill="#4f6ce8"/><rect x="395.83" y="79.17" width="79.17" height="79.17" fill="#ffa8bd"/><rect x="475" y="79.17" width="79.17" height="79.17" fill="#ff84a1"/><polygon points="475,79.17 554.17,79.17 554.17,158.34" fill="#dfe4fb"/><rect x="554.1666666666667" y="79.16666666666667" width="79.16666666666667" height="79.16666666666667" fill="#ffffff"/><rect x="554.17" y="79.17" width="39.58" height="39.58" fill="#ffa4ba"/><polygon points="593.75,79.17 593.75,118.75 554.17,118.75" fill="#c8d1f8"/><rect x="593.75" y="79.17" width="39.58" height="39.58" fill="#f5f7fe"/><polygon points="593.75,79.17 633.33,118.75 593.75,118.75" fill="#ffccd8"/><rect x="554.17" y="118.75" width="39.58" height="39.58" fill="#ff6187"/><polygon points="554.17,118.75 593.75,118.75 554.17,158.32999999999998" fill="#ff6086"/><rect x="593.75" y="118.75" width="39.58" height="39.58" fill="#5a76ea"/><polygon points="593.75,118.75 633.33,118.75 633.33,158.32999999999998" fill="#ff698c"/><rect x="633.3333333333334" y="79.16666666666667" width="79.16666666666667" height="79.16666666666667" fill="#ffffff"/><rect x="633.33" y="79.17" width="39.58" height="39.58" fill="#fff1f5"/><polygon points="672.9100000000001,79.17 672.9100000000001,118.75 633.33,118.75" fill="#93a5f1"/><rect x="672.92" y="79.17" width="39.58" height="39.58" fill="#a7b6f4"/><polygon points="672.92,79.17 712.5,118.75 672.92,118.75" fill="#3053e4"/><rect x="633.33" y="118.75" width="39.58" height="39.58" fill="#2046e2"/><polygon points="633.33,118.75 672.9100000000001,118.75 672.9100000000001,158.32999999999998" fill="#b1bef5"/><rect x="672.92" y="118.75" width="39.58" height="39.58" fill="#3456e5"/><polygon points="672.92,118.75 712.5,118.75 672.92,158.32999999999998" fill="#3d5ee6"/><rect x="712.5" y="79.16666666666667" width="79.16666666666667" height="79.16666666666667" fill="#ffffff"/><rect x="712.5" y="79.17" width="39.58" height="39.58" fill="#7c92ee"/><path d="M 712.5 79.17 A 39.58 39.58 0 0 0 752.08 118.75 L 752.08 79.17" fill="#ffdce5"/><rect x="752.08" y="79.17" width="39.58" height="39.58" fill="#c8d1f8"/><path d="M 752.08 118.75 A 39.58 39.58 0 0 0 791.6600000000001 79.17 L 752.08 79.17" fill="#3154e4"/><rect x="712.5" y="118.75" width="39.58" height="39.58" fill="#d7defa"/><path d="M 712.5 158.32999999999998 A 39.58 39.58 0 0 1  752.08 118.75 L 752.08 158.32999999999998" fill="#9bacf2"/><rect x="752.08" y="118.75" width="39.58" height="39.58" fill="#fffbfc"/><path d="M 752.08 118.75 A 39.58 39.58 0 0 1 791.6600000000001 158.32999999999998 L 752.08 158.32999999999998" fill="#d4dbf9"/><rect x="791.6666666666667" y="79.16666666666667" width="79.16666666666667" height="79.16666666666667" fill="#ffffff"/><rect x="791.67" y="79.17" width="39.58" height="39.58" fill="#ffeef2"/><path d="M 791.67 118.75 A 39.58 39.58 0 0 1  831.25 79.17 L 831.25 118.75" fill="#ff9cb4"/><rect x="831.25" y="79.17" width="39.58" height="39.58" fill="#637deb"/><path d="M 831.25 79.17 A 39.58 39.58 0 0 1 870.83 118.75 L 831.25 118.75" fill="#b8c4f6"/><rect x="791.67" y="118.75" width="39.58" height="39.58" fill="#bcc7f6"/><path d="M 791.67 118.75 A 39.58 39.58 0 0 0 831.25 158.32999999999998 L 831.25 118.75" fill="#8fa2f0"/><rect x="831.25" y="118.75" width="39.58" height="39.58" fill="#ff7696"/><path d="M 831.25 158.32999999999998 A 39.58 39.58 0 0 0 870.83 118.75 L 831.25 118.75" fill="#ff5c83"/><rect x="0" y="158.33333333333334" width="79.16666666666667" height="79.16666666666667" fill="#ffffff"/><rect x="0" y="158.33" width="39.58" height="39.58" fill="#ff4f79"/><circle cx="19.79" cy="178.12" r="19.79" fill="#ff6b8e"/><rect x="39.58" y="158.33" width="39.58" height="39.58" fill="#9eaef2"/><rect x="39.58" y="158.33" width="39.58" height="39.58" fill="#92a5f1"/><rect x="0" y="197.92" width="39.58" height="39.58" fill="#1f45e2"/><circle cx="19.79" cy="217.70999999999998" r="19.79" fill="#f4f6fe"/><rect x="39.58" y="197.92" width="39.58" height="39.58" fill="#dae0fa"/><rect x="39.58" y="197.92" width="39.58" height="39.58" fill="#ff3d6b"/><rect x="79.17" y="158.33" width="79.17" height="79.17" fill="#ff3a69"/><rect x="79.17" y="158.33" width="79.17" height="79.17" fill="#284de3"/><rect x="158.33333333333334" y="158.33333333333334" width="79.16666666666667" height="79.16666666666667" fill="#ffffff"/><rect x="158.33" y="158.33" width="39.58" height="39.58" fill="#cfd7f9"/><polygon points="197.91000000000003,158.33 197.91000000000003,197.91000000000003 158.33,197.91000000000003" fill="#ff7596"/><rect x="197.92" y="158.33" width="39.58" height="39.58" fill="#ff3565"/><polygon points="197.92,158.33 237.5,197.91000000000003 197.92,197.91000000000003" fill="#ffcad7"/><rect x="158.33" y="197.92" width="39.58" height="39.58" fill="#ff4773"/><polygon points="158.33,197.92 197.91000000000003,197.92 197.91000000000003,237.5" fill="#ff5a81"/><rect x="197.92" y="197.92" width="39.58" height="39.58" fill="#c5cff8"/><polygon points="197.92,197.92 237.5,197.92 197.92,237.5" fill="#ffdee6"/><rect x="237.5" y="158.33" width="79.17" height="79.17" fill="#657feb"/><polygon points="316.67,158.33 316.67,237.5 237.5,237.5" fill="#3456e5"/><rect x="316.67" y="158.33" width="79.17" height="79.17" fill="#ff3a69"/><path d="M 316.67 158.33 A 79.17 79.17 0 0 1  395.84000000000003 237.5 L 316.67 158.33 A 79.17 79.17 0 0 0 395.84000000000003 237.5" fill="#1d43e2"/><rect x="395.83333333333337" y="158.33333333333334" width="79.16666666666667" height="79.16666666666667" fill="#ffffff"/><rect x="395.83" y="158.33" width="39.58" height="39.58" fill="#3355e4"/><polygon points="435.40999999999997,158.33 435.40999999999997,197.91000000000003 395.83,197.91000000000003" fill="#fff9fa"/><rect x="435.42" y="158.33" width="39.58" height="39.58" fill="#778eed"/><polygon points="435.42,158.33 475,197.91000000000003 435.42,197.91000000000003" fill="#ff6f91"/><rect x="395.83" y="197.92" width="39.58" height="39.58" fill="#ffdbe4"/><polygon points="395.83,197.92 435.40999999999997,197.92 395.83,237.5" fill="#ff4a75"/><rect x="435.42" y="197.92" width="39.58" height="39.58" fill="#9dadf2"/><polygon points="435.42,197.92 475,197.92 475,237.5" fill="#93a5f1"/><rect x="475" y="158.33333333333334" width="79.16666666666667" height="79.16666666666667" fill="#ffffff"/><rect x="475" y="158.33" width="39.58" height="39.58" fill="#ffb9ca"/><circle cx="494.79" cy="178.12" r="19.79" fill="#ffc5d3"/><rect x="514.58" y="158.33" width="39.58" height="39.58" fill="#ff7797"/><rect x="514.58" y="158.33" width="39.58" height="39.58" fill="#5672e9"/><rect x="475" y="197.92" width="39.58" height="39.58" fill="#ffc3d2"/><circle cx="494.79" cy="217.70999999999998" r="19.79" fill="#4161e6"/><rect x="514.58" y="197.92" width="39.58" height="39.58" fill="#ffdce4"/><rect x="514.58" y="197.92" width="39.58" height="39.58" fill="#d2daf9"/><rect x="554.1666666666667" y="158.33333333333334" width="79.16666666666667" height="79.16666666666667" fill="#ffffff"/><rect x="554.17" y="158.33" width="39.58" height="39.58" fill="#fcfdff"/><circle cx="573.9599999999999" cy="178.12" r="19.79" fill="#ffe2e9"/><rect x="593.75" y="158.33" width="39.58" height="39.58" fill="#ff4874"/><rect x="593.75" y="158.33" width="39.58" height="39.58" fill="#b9c5f6"/><rect x="554.17" y="197.92" width="39.58" height="39.58" fill="#90a3f1"/><circle cx="573.9599999999999" cy="217.70999999999998" r="19.79" fill="#ffd4de"/><rect x="593.75" y="197.92" width="39.58" height="39.58" fill="#4d6be8"/><rect x="593.75" y="197.92" width="39.58" height="39.58" fill="#264be3"/><rect x="633.3333333333334" y="158.33333333333334" width="79.16666666666667" height="79.16666666666667" fill="#ffffff"/><rect x="633.33" y="158.33" width="39.58" height="39.58" fill="#aebcf4"/><path d="M 633.33 197.91000000000003 A 39.58 39.58 0 0 1 672.9100000000001 158.33 L 672.9100000000001 168.22500000000002 A 29.685 29.685 0 0 0 643.225 197.91000000000003" fill="#92a5f1"/><rect x="672.92" y="158.33" width="39.58" height="39.58" fill="#3d5de6"/><path d="M 672.92 158.33 A 39.58 39.58 0 0 1 712.5 197.91000000000003 L 702.6049999999999 197.91000000000003 A 29.685 29.685 0 0 0 672.92 168.22500000000002" fill="#ffc7d4"/><rect x="633.33" y="197.92" width="39.58" height="39.58" fill="#264ae3"/><path d="M 633.33 197.92 A 39.58 39.58 0 0 0 672.9100000000001 237.5 L 672.9100000000001 227.605 A 29.685 29.685 0 0 1 643.225 197.92" fill="#ff3d6b"/><rect x="672.92" y="197.92" width="39.58" height="39.58" fill="#ff527b"/><path d="M 672.92 237.5 A 39.58 39.58 0 0 0 712.5 197.92 L 702.6049999999999 197.92 A 29.685 29.685 0 0 1 672.92 227.605" fill="#ff98b1"/><rect x="712.5" y="158.33333333333334" width="79.16666666666667" height="79.16666666666667" fill="#ffffff"/><rect x="712.5" y="158.33" width="39.58" height="39.58" fill="#dee4fb"/><path d="M 712.5 197.91000000000003 A 39.58 39.58 0 0 1  752.08 158.33 L 752.08 197.91000000000003" fill="#ff6187"/><rect x="752.08" y="158.33" width="39.58" height="39.58" fill="#4b6ae8"/><path d="M 752.08 158.33 A 39.58 39.58 0 0 1 791.6600000000001 197.91000000000003 L 752.08 197.91000000000003" fill="#ff92ac"/><rect x="712.5" y="197.92" width="39.58" height="39.58" fill="#7a90ee"/><path d="M 712.5 197.92 A 39.58 39.58 0 0 0 752.08 237.5 L 752.08 197.92" fill="#8297ef"/><rect x="752.08" y="197.92" width="39.58" height="39.58" fill="#ff89a5"/><path d="M 752.08 237.5 A 39.58 39.58 0 0 0 791.6600000000001 197.92 L 752.08 197.92" fill="#a2b1f3"/><rect x="791.6666666666667" y="158.33333333333334" width="79.16666666666667" height="79.16666666666667" fill="#ffffff"/><rect x="791.67" y="158.33" width="39.58" height="39.58" fill="#ff5980"/><polygon points="831.25,158.33 831.25,197.91000000000003 791.67,197.91000000000003" fill="#e8ecfc"/><rect x="831.25" y="158.33" width="39.58" height="39.58" fill="#ff517a"/><polygon points="831.25,158.33 870.83,158.33 831.25,197.91000000000003" fill="#ff3f6d"/><rect x="791.67" y="197.92" width="39.58" height="39.58" fill="#c3cdf7"/><polygon points="791.67,197.92 831.25,197.92 831.25,237.5" fill="#dce2fa"/><rect x="831.25" y="197.92" width="39.58" height="39.58" fill="#3d5ee6"/><polygon points="831.25,197.92 870.83,237.5 831.25,237.5" fill="#2348e2"/><rect x="0" y="237.5" width="79.17" height="79.17" fill="#294de3"/><polygon points="0,237.5 79.17,237.5 0,316.67" fill="#ff3868"/><rect x="79.17" y="237.5" width="79.17" height="79.17" fill="#a1b1f3"/><path d="M 79.17 316.67 A 79.17 79.17 0 0 1  158.34 237.5 L 158.34 316.67" fill="#ffecf1"/><rect x="158.33" y="237.5" width="79.17" height="79.17" fill="#ff3766"/><rect x="158.33" y="237.5" width="79.17" height="79.17" fill="#ff5b82"/><rect x="237.5" y="237.5" width="79.17" height="79.17" fill="#ffe3ea"/><polygon points="237.5,237.5 316.67,316.67 237.5,316.67" fill="#ffd9e2"/><rect x="316.6666666666667" y="237.5" width="79.16666666666667" height="79.16666666666667" fill="#ffffff"/><rect x="316.67" y="237.5" width="39.58" height="39.58" fill="#ff7999"/><circle cx="336.46000000000004" cy="257.29" r="19.79" fill="#ffd8e1"/><rect x="356.25" y="237.5" width="39.58" height="39.58" fill="#f5f6fe"/><rect x="356.25" y="237.5" width="39.58" height="39.58" fill="#ff6186"/><rect x="316.67" y="277.08" width="39.58" height="39.58" fill="#ffb7c8"/><circle cx="336.46000000000004" cy="296.87" r="19.79" fill="#e4e9fc"/><rect x="356.25" y="277.08" width="39.58" height="39.58" fill="#5370e9"/><rect x="356.25" y="277.08" width="39.58" height="39.58" fill="#ff87a4"/><rect x="395.83" y="237.5" width="79.17" height="79.17" fill="#ff3767"/><rect x="395.83" y="237.5" width="79.17" height="79.17" fill="#f0f2fd"/><rect x="475" y="237.5" width="79.17" height="79.17" fill="#1f45e2"/><polygon points="554.17,237.5 554.17,316.67 475,316.67" fill="#ff7697"/><rect x="554.1666666666667" y="237.5" width="79.16666666666667" height="79.16666666666667" fill="#ffffff"/><rect x="554.17" y="237.5" width="39.58" height="39.58" fill="#c5cff7"/><circle cx="573.9599999999999" cy="257.29" r="19.79" fill="#ff5b82"/><rect x="593.75" y="237.5" width="39.58" height="39.58" fill="#f6f7fe"/><rect x="593.75" y="237.5" width="39.58" height="39.58" fill="#adbbf4"/><rect x="554.17" y="277.08" width="39.58" height="39.58" fill="#ff9eb5"/><circle cx="573.9599999999999" cy="296.87" r="19.79" fill="#4262e6"/><rect x="593.75" y="277.08" width="39.58" height="39.58" fill="#fffafb"/><rect x="593.75" y="277.08" width="39.58" height="39.58" fill="#ffdce5"/><rect x="633.33" y="237.5" width="79.17" height="79.17" fill="#ffb5c7"/><path d="M 633.33 316.67 A 79.17 79.17 0 0 1  712.5 237.5 L 633.33 316.67 A 79.17 79.17 0 0 0 712.5 237.5" fill="#95a7f1"/><rect x="712.5" y="237.5" width="79.17" height="79.17" fill="#ff7596"/><path d="M 712.5 237.5 A 79.17 79.17 0 0 0 791.67 316.67 L 791.67 237.5" fill="#ffbfce"/><rect x="791.6666666666667" y="237.5" width="79.16666666666667" height="79.16666666666667" fill="#ffffff"/><rect x="791.67" y="237.5" width="39.58" height="39.58" fill="#abb9f4"/><path d="M 791.67 237.5 A 39.58 39.58 0 0 0 831.25 277.08 L 831.25 237.5" fill="#ffa4ba"/><rect x="831.25" y="237.5" width="39.58" height="39.58" fill="#ff406d"/><path d="M 831.25 277.08 A 39.58 39.58 0 0 0 870.83 237.5 L 831.25 237.5" fill="#ffb2c5"/><rect x="791.67" y="277.08" width="39.58" height="39.58" fill="#b0bef5"/><path d="M 791.67 316.65999999999997 A 39.58 39.58 0 0 1  831.25 277.08 L 831.25 316.65999999999997" fill="#3b5ce6"/><rect x="831.25" y="277.08" width="39.58" height="39.58" fill="#ff3d6b"/><path d="M 831.25 277.08 A 39.58 39.58 0 0 1 870.83 316.65999999999997 L 831.25 316.65999999999997" fill="#3f5fe6"/><rect x="0" y="316.6666666666667" width="79.16666666666667" height="79.16666666666667" fill="#ffffff"/><rect x="0" y="316.67" width="39.58" height="39.58" fill="#ff3565"/><circle cx="19.79" cy="336.46000000000004" r="19.79" fill="#3b5ce6"/><rect x="39.58" y="316.67" width="39.58" height="39.58" fill="#c3cdf7"/><rect x="39.58" y="316.67" width="39.58" height="39.58" fill="#aebcf5"/><rect x="0" y="356.25" width="39.58" height="39.58" fill="#ff85a2"/><circle cx="19.79" cy="376.04" r="19.79" fill="#ffe9ee"/><rect x="39.58" y="356.25" width="39.58" height="39.58" fill="#fff0f3"/><rect x="39.58" y="356.25" width="39.58" height="39.58" fill="#738aed"/><rect x="79.16666666666667" y="316.6666666666667" width="79.16666666666667" height="79.16666666666667" fill="#ffffff"/><rect x="79.17" y="316.67" width="39.58" height="39.58" fill="#6982eb"/><path d="M 79.17 356.25 A 39.58 39.58 0 0 1  118.75 316.67 L 118.75 356.25" fill="#ffc8d5"/><rect x="118.75" y="316.67" width="39.58" height="39.58" fill="#2c50e4"/><path d="M 118.75 316.67 A 39.58 39.58 0 0 1 158.32999999999998 356.25 L 118.75 356.25" fill="#778eed"/><rect x="79.17" y="356.25" width="39.58" height="39.58" fill="#ff4471"/><path d="M 79.17 356.25 A 39.58 39.58 0 0 0 118.75 395.83 L 118.75 356.25" fill="#ffb6c8"/><rect x="118.75" y="356.25" width="39.58" height="39.58" fill="#a3b3f3"/><path d="M 118.75 395.83 A 39.58 39.58 0 0 0 158.32999999999998 356.25 L 118.75 356.25" fill="#f9fafe"/><rect x="158.33333333333334" y="316.6666666666667" width="79.16666666666667" height="79.16666666666667" fill="#ffffff"/><rect x="158.33" y="316.67" width="39.58" height="39.58" fill="#ffafc2"/><polygon points="197.91000000000003,316.67 197.91000000000003,356.25 158.33,356.25" fill="#ffd3dd"/><rect x="197.92" y="316.67" width="39.58" height="39.58" fill="#647eeb"/><polygon points="197.92,316.67 237.5,356.25 197.92,356.25" fill="#ffd2dd"/><rect x="158.33" y="356.25" width="39.58" height="39.58" fill="#7088ec"/><polygon points="158.33,356.25 197.91000000000003,356.25 158.33,395.83" fill="#ff9fb6"/><rect x="197.92" y="356.25" width="39.58" height="39.58" fill="#e7ebfc"/><polygon points="197.92,356.25 237.5,356.25 237.5,395.83" fill="#d8dffa"/><rect x="237.5" y="316.67" width="79.17" height="79.17" fill="#ffabbf"/><polygon points="237.5,316.67 316.67,395.84000000000003 237.5,395.84000000000003" fill="#ff93ad"/><rect x="316.67" y="316.67" width="79.17" height="79.17" fill="#e0e5fb"/><rect x="316.67" y="316.67" width="79.17" height="79.17" fill="#ffeef2"/><rect x="395.83333333333337" y="316.6666666666667" width="79.16666666666667" height="79.16666666666667" fill="#ffffff"/><rect x="395.83" y="316.67" width="39.58" height="39.58" fill="#4968e7"/><path d="M 395.83 356.25 A 39.58 39.58 0 0 0 435.40999999999997 316.67 L 395.83 316.67" fill="#7a91ee"/><rect x="435.42" y="316.67" width="39.58" height="39.58" fill="#d5dcfa"/><path d="M 435.42 316.67 A 39.58 39.58 0 0 0 475 356.25 L 475 316.67" fill="#ff7395"/><rect x="395.83" y="356.25" width="39.58" height="39.58" fill="#395ae5"/><path d="M 395.83 356.25 A 39.58 39.58 0 0 1 435.40999999999997 395.83 L 395.83 395.83" fill="#264be3"/><rect x="435.42" y="356.25" width="39.58" height="39.58" fill="#a6b5f3"/><path d="M 435.42 395.83 A 39.58 39.58 0 0 1  475 356.25 L 475 395.83" fill="#f4f6fe"/><rect x="475" y="316.67" width="79.17" height="79.17" fill="#fff6f8"/><polygon points="475,316.67 554.17,316.67 554.17,395.84000000000003" fill="#ff7596"/><rect x="554.17" y="316.67" width="79.17" height="79.17" fill="#284ce3"/><rect x="554.17" y="316.67" width="79.17" height="79.17" fill="#ff668a"/><rect x="633.33" y="316.67" width="79.17" height="79.17" fill="#8ea1f0"/><polygon points="633.33,316.67 712.5,316.67 712.5,395.84000000000003" fill="#5975e9"/><rect x="712.5" y="316.67" width="79.17" height="79.17" fill="#a0b0f3"/><rect x="712.5" y="316.67" width="79.17" height="79.17" fill="#ffd6e0"/><rect x="791.6666666666667" y="316.6666666666667" width="79.16666666666667" height="79.16666666666667" fill="#ffffff"/><rect x="791.67" y="316.67" width="39.58" height="39.58" fill="#ffa1b8"/><path d="M 791.67 316.67 A 39.58 39.58 0 0 0 831.25 356.25 L 831.25 316.67" fill="#ff95ae"/><rect x="831.25" y="316.67" width="39.58" height="39.58" fill="#ff4d77"/><path d="M 831.25 356.25 A 39.58 39.58 0 0 0 870.83 316.67 L 831.25 316.67" fill="#ff93ad"/><rect x="791.67" y="356.25" width="39.58" height="39.58" fill="#ffabbf"/><path d="M 791.67 395.83 A 39.58 39.58 0 0 1  831.25 356.25 L 831.25 395.83" fill="#506ee8"/><rect x="831.25" y="356.25" width="39.58" height="39.58" fill="#ffcbd7"/><path d="M 831.25 356.25 A 39.58 39.58 0 0 1 870.83 395.83 L 831.25 395.83" fill="#d8defa"/><rect x="0" y="395.83" width="79.17" height="79.17" fill="#ffaec2"/><rect x="0" y="395.83" width="79.17" height="79.17" fill="#4a68e7"/><rect x="79.16666666666667" y="395.83333333333337" width="79.16666666666667" height="79.16666666666667" fill="#ffffff"/><rect x="79.17" y="395.83" width="39.58" height="39.58" fill="#eceffd"/><polygon points="118.75,395.83 118.75,435.40999999999997 79.17,435.40999999999997" fill="#ff6e91"/><rect x="118.75" y="395.83" width="39.58" height="39.58" fill="#2348e2"/><polygon points="118.75,395.83 158.32999999999998,435.40999999999997 118.75,435.40999999999997" fill="#4665e7"/><rect x="79.17" y="435.42" width="39.58" height="39.58" fill="#3f60e6"/><polygon points="79.17,435.42 118.75,435.42 79.17,475" fill="#d7defa"/><rect x="118.75" y="435.42" width="39.58" height="39.58" fill="#eff2fd"/><polygon points="118.75,435.42 158.32999999999998,435.42 158.32999999999998,475" fill="#ffd3dd"/><rect x="158.33333333333334" y="395.83333333333337" width="79.16666666666667" height="79.16666666666667" fill="#ffffff"/><rect x="158.33" y="395.83" width="39.58" height="39.58" fill="#a5b4f3"/><path d="M 158.33 435.40999999999997 A 39.58 39.58 0 0 1 197.91000000000003 395.83 L 197.91000000000003 405.72499999999997 A 29.685 29.685 0 0 0 168.22500000000002 435.40999999999997" fill="#6b84ec"/><rect x="197.92" y="395.83" width="39.58" height="39.58" fill="#8096ef"/><path d="M 197.92 395.83 A 39.58 39.58 0 0 1 237.5 435.40999999999997 L 227.605 435.40999999999997 A 29.685 29.685 0 0 0 197.92 405.72499999999997" fill="#ff4e78"/><rect x="158.33" y="435.42" width="39.58" height="39.58" fill="#ff3e6c"/><path d="M 158.33 435.42 A 39.58 39.58 0 0 0 197.91000000000003 475 L 197.91000000000003 465.105 A 29.685 29.685 0 0 1 168.22500000000002 435.42" fill="#516ee8"/><rect x="197.92" y="435.42" width="39.58" height="39.58" fill="#bcc7f6"/><path d="M 197.92 475 A 39.58 39.58 0 0 0 237.5 435.42 L 227.605 435.42 A 29.685 29.685 0 0 1 197.92 465.105" fill="#6781eb"/><rect x="237.5" y="395.83" width="79.17" height="79.17" fill="#fffdfe"/><polygon points="237.5,395.83 316.67,395.83 316.67,475" fill="#ff7b9a"/><rect x="316.67" y="395.83" width="79.17" height="79.17" fill="#fff0f4"/><rect x="316.67" y="395.83" width="79.17" height="79.17" fill="#b5c2f5"/><rect x="395.83333333333337" y="395.83333333333337" width="79.16666666666667" height="79.16666666666667" fill="#ffffff"/><rect x="395.83" y="395.83" width="39.58" height="39.58" fill="#f2f4fd"/><path d="M 395.83 435.40999999999997 A 39.58 39.58 0 0 1 435.40999999999997 395.83 L 435.40999999999997 405.72499999999997 A 29.685 29.685 0 0 0 405.72499999999997 435.40999999999997" fill="#ff3867"/><rect x="435.42" y="395.83" width="39.58" height="39.58" fill="#98a9f2"/><path d="M 435.42 395.83 A 39.58 39.58 0 0 1 475 435.40999999999997 L 465.105 435.40999999999997 A 29.685 29.685 0 0 0 435.42 405.72499999999997" fill="#2f52e4"/><rect x="395.83" y="435.42" width="39.58" height="39.58" fill="#5672e9"/><path d="M 395.83 435.42 A 39.58 39.58 0 0 0 435.40999999999997 475 L 435.40999999999997 465.105 A 29.685 29.685 0 0 1 405.72499999999997 435.42" fill="#ffc1d0"/><rect x="435.42" y="435.42" width="39.58" height="39.58" fill="#d7defa"/><path d="M 435.42 475 A 39.58 39.58 0 0 0 475 435.42 L 465.105 435.42 A 29.685 29.685 0 0 1 435.42 465.105" fill="#4a69e7"/><rect x="475" y="395.83" width="79.17" height="79.17" fill="#ffc1d0"/><rect x="475" y="395.83" width="79.17" height="79.17" fill="#ffa4b9"/><rect x="554.17" y="395.83" width="79.17" height="79.17" fill="#ff809e"/><path d="M 554.17 475 A 79.17 79.17 0 0 0 633.3399999999999 395.83 L 554.17 395.83" fill="#ff678b"/><rect x="633.3333333333334" y="395.83333333333337" width="79.16666666666667" height="79.16666666666667" fill="#ffffff"/><rect x="633.33" y="395.83" width="39.58" height="39.58" fill="#aebbf4"/><path d="M 633.33 395.83 A 39.58 39.58 0 0 0 672.9100000000001 435.40999999999997 L 672.9100000000001 395.83" fill="#e0e6fb"/><rect x="672.92" y="395.83" width="39.58" height="39.58" fill="#c0cbf7"/><path d="M 672.92 435.40999999999997 A 39.58 39.58 0 0 0 712.5 395.83 L 672.92 395.83" fill="#ffdbe3"/><rect x="633.33" y="435.42" width="39.58" height="39.58" fill="#3154e4"/><path d="M 633.33 475 A 39.58 39.58 0 0 1  672.9100000000001 435.42 L 672.9100000000001 475" fill="#edf0fd"/><rect x="672.92" y="435.42" width="39.58" height="39.58" fill="#1f45e2"/><path d="M 672.92 435.42 A 39.58 39.58 0 0 1 712.5 475 L 672.92 475" fill="#3f60e6"/><rect x="712.5" y="395.83333333333337" width="79.16666666666667" height="79.16666666666667" fill="#ffffff"/><rect x="712.5" y="395.83" width="39.58" height="39.58" fill="#eff2fd"/><path d="M 712.5 395.83 A 39.58 39.58 0 0 0 752.08 435.40999999999997 L 752.08 395.83" fill="#cad3f8"/><rect x="752.08" y="395.83" width="39.58" height="39.58" fill="#ffe7ed"/><path d="M 752.08 435.40999999999997 A 39.58 39.58 0 0 0 791.6600000000001 395.83 L 752.08 395.83" fill="#9aabf2"/><rect x="712.5" y="435.42" width="39.58" height="39.58" fill="#274be3"/><path d="M 712.5 475 A 39.58 39.58 0 0 1  752.08 435.42 L 752.08 475" fill="#4f6de8"/><rect x="752.08" y="435.42" width="39.58" height="39.58" fill="#ff7797"/><path d="M 752.08 435.42 A 39.58 39.58 0 0 1 791.6600000000001 475 L 752.08 475" fill="#6f87ec"/><rect x="791.67" y="395.83" width="79.17" height="79.17" fill="#ffc8d5"/><rect x="791.67" y="395.83" width="79.17" height="79.17" fill="#3255e4"/></g></svg>