<?xml version="1.0" standalone="no"?><svg xmlns:xlink="http://www.w3.org/1999/xlink" xmlns="http://www.w3.org/2000/svg" viewBox="0 0 1000 666.6666666666666" preserveAspectRatio="xMaxYMax slice"><g transform="scale(1.8779342723004695)"><rect x="0" y="0" width="532.5" height="355" fill="#ffffff"/><rect x="0" y="0" width="88.75" height="88.75" fill="#ffffff"/><circle cx="22.19" cy="22.19" r="22.19" fill="#ff8fa9"/><circle cx="66.57000000000001" cy="22.19" r="22.19" fill="#bec9f7"/><circle cx="22.19" cy="66.57000000000001" r="22.19" fill="#ff91ab"/><circle cx="66.57000000000001" cy="66.57000000000001" r="22.19" fill="#fff7f9"/><circle cx="133.125" cy="44.375" r="44.375" fill="#afbdf5"/><rect x="177.5" y="0" width="88.75" height="88.75" fill="#ffffff"/><circle cx="199.69" cy="22.19" r="22.19" fill="#fefeff"/><circle cx="244.07" cy="22.19" r="22.19" fill="#4362e7"/><circle cx="199.69" cy="66.57000000000001" r="22.19" fill="#fffbfc"/><circle cx="244.07" cy="66.57000000000001" r="22.19" fill="#4464e7"/><circle cx="310.625" cy="44.375" r="44.375" fill="#8ea1f0"/><circle cx="399.375" cy="44.375" r="44.375" fill="#d3dbf9"/><circle cx="488.125" cy="44.375" r="44.375" fill="#ff6c8f"/><rect x="0" y="88.75" width="88.75" height="88.75" fill="#ffffff"/><circle cx="22.19" cy="110.94" r="22.19" fill="#ffeef2"/><circle cx="66.57000000000001" cy="110.94" r="22.19" fill="#778eed"/><circle cx="22.19" cy="155.32" r="22.19" fill="#798fee"/><circle cx="66.57000000000001" cy="155.32" r="22.19" fill="#ffb1c4"/><circle cx="133.125" cy="133.125" r="44.375" fill="#ff517a"/><circle cx="221.875" cy="133.125" r="44.375" fill="#b8c4f6"/><rect x="266.25" y="88.75" width="88.75" height="88.75" fill="#ffffff"/><circle cx="288.44" cy="110.94" r="22.19" fill="#869aef"/><circle cx="332.82" cy="110.94" r="22.19" fill="#ffa3b9"/><circle cx="288.44" cy="155.32" r="22.19" fill="#e9edfc"/><circle cx="332.82" cy="155.32" r="22.19" fill="#ff4672"/><circle cx="399.375" cy="133.125" r="44.375" fill="#ffbccc"/><circle cx="488.125" cy="133.125" r="44.375" fill="#3658e5"/><circle cx="44.375" cy="221.875" r="44.375" fill="#ffc4d2"/><circle cx="133.125" cy="221.875" r="44.375" fill="#ffbdcc"/><rect x="177.5" y="177.5" width="88.75" height="88.75" fill="#ffffff"/><circle cx="199.69" cy="199.69" r="22.19" fill="#97a8f1"/><circle cx="244.07" cy="199.69" r="22.19" fill="#ff8ca8"/><circle cx="199.69" cy="244.07" r="22.19" fill="#cad3f8"/><circle cx="244.07" cy="244.07" r="22.19" fill="#2248e2"/><rect x="266.25" y="177.5" width="88.75" height="88.75" fill="#ffffff"/><circle cx="288.44" cy="199.69" r="22.19" fill="#ff9cb3"/><circle cx="332.82" cy="199.69" r="22.19" fill="#ffb3c5"/><circle cx="288.44" cy="244.07" r="22.19" fill="#c0cbf7"/><circle cx="332.82" cy="244.07" r="22.19" fill="#ffbece"/><rect x="355" y="177.5" width="88.75" height="88.75" fill="#ffffff"/><circle cx="377.19" cy="199.69" r="22.19" fill="#fffcfd"/><circle cx="421.57" cy="199.69" r="22.19" fill="#ff819f"/><circle cx="377.19" cy="244.07" r="22.19" fill="#ccd5f8"/><circle cx="421.57" cy="244.07" r="22.19" fill="#ff557e"/><rect x="443.75" y="177.5" width="88.75" height="88.75" fill="#ffffff"/><circle cx="465.94" cy="199.69" r="22.19" fill="#ffc4d2"/><circle cx="510.32" cy="199.69" r="22.19" fill="#b4c0f5"/><circle cx="465.94" cy="244.07" r="22.19" fill="#ff92ac"/><circle cx="510.32" cy="244.07" r="22.19" fill="#ff9fb6"/><rect x="0" y="266.25" width="88.75" height="88.75" fill="#ffffff"/><circle cx="22.19" cy="288.44" r="22.19" fill="#ff5880"/><circle cx="66.57000000000001" cy="288.44" r="22.19" fill="#778eed"/><circle cx="22.19" cy="332.82" r="22.19" fill="#e5e9fc"/><circle cx="66.57000000000001" cy="332.82" r="22.19" fill="#dfe4fb"/><circle cx="133.125" cy="310.625" r="44.375" fill="#ffced9"/><rect x="177.5" y="266.25" width="88.75" height="88.75" fill="#ffffff"/><circle cx="199.69" cy="288.44" r="22.19" fill="#b6c3f6"/><circle cx="244.07" cy="288.44" r="22.19" fill="#ff3e6c"/><circle cx="199.69" cy="332.82" r="22.19" fill="#ff3f6c"/><circle cx="244.07" cy="332.82" r="22.19" fill="#e5eafc"/><circle cx="310.625" cy="310.625" r="44.375" fill="#5773e9"/><rect x="355" y="266.25" width="88.75" height="88.75" fill="#ffffff"/><circle cx="377.19" cy="288.44" r="22.19" fill="#dee4fb"/><circle cx="421.57" cy="288.44" r="22.19" fill="#ff98b0"/><circle cx="377.19" cy="332.82" r="22.19" fill="#7e94ee"/><circle cx="421.57" cy="332.82" r="22.19" fill="#fff5f7"/><circle cx="488.125" cy="310.625" r="44.375" fill="#8599ef"/></g></svg>