<svg xmlns="http://www.w3.org/2000/svg" version="1.1"
    xmlns:xlink="http://www.w3.org/1999/xlink"
    xmlns:svgjs="http://svgjs.com/svgjs" width="1440" height="1080" preserveAspectRatio="none" viewBox="0 0 1440 1080">
    <g mask="url(&quot;#SvgjsMask1084&quot;)" fill="none">
        <rect width="1440" height="1080" x="0" y="0" fill="rgba(18, 13, 49, 1)"></rect>
        <path d="M52 765L-474 239" stroke-width="10" stroke="url(#SvgjsLinearGradient1085)" stroke-linecap="round" class="TopLeft"></path>
        <path d="M703 264L261 -178" stroke-width="6" stroke="url(#SvgjsLinearGradient1085)" stroke-linecap="round" class="TopLeft"></path>
        <path d="M907 187L1316 596" stroke-width="6" stroke="url(#SvgjsLinearGradient1085)" stroke-linecap="round" class="TopLeft"></path>
        <path d="M159 170L-635 -624" stroke-width="6" stroke="url(#SvgjsLinearGradient1086)" stroke-linecap="round" class="BottomRight"></path>
        <path d="M472 112L164 -196" stroke-width="10" stroke="url(#SvgjsLinearGradient1086)" stroke-linecap="round" class="BottomRight"></path>
        <path d="M1088 622L589 123" stroke-width="6" stroke="url(#SvgjsLinearGradient1085)" stroke-linecap="round" class="TopLeft"></path>
        <path d="M1195 489L757 51" stroke-width="10" stroke="url(#SvgjsLinearGradient1085)" stroke-linecap="round" class="TopLeft"></path>
        <path d="M325 858L-268 265" stroke-width="8" stroke="url(#SvgjsLinearGradient1086)" stroke-linecap="round" class="BottomRight"></path>
        <path d="M769 680L165 76" stroke-width="6" stroke="url(#SvgjsLinearGradient1086)" stroke-linecap="round" class="BottomRight"></path>
        <path d="M1169 497L1787 1115" stroke-width="6" stroke="url(#SvgjsLinearGradient1085)" stroke-linecap="round" class="TopLeft"></path>
        <path d="M1288 43L799 -446" stroke-width="8" stroke="url(#SvgjsLinearGradient1085)" stroke-linecap="round" class="TopLeft"></path>
        <path d="M928 197L293 -438" stroke-width="6" stroke="url(#SvgjsLinearGradient1085)" stroke-linecap="round" class="TopLeft"></path>
        <path d="M422 608L1067 1253" stroke-width="10" stroke="url(#SvgjsLinearGradient1086)" stroke-linecap="round" class="BottomRight"></path>
        <path d="M52 749L-324 373" stroke-width="6" stroke="url(#SvgjsLinearGradient1086)" stroke-linecap="round" class="BottomRight"></path>
        <path d="M1161 401L1765 1005" stroke-width="8" stroke="url(#SvgjsLinearGradient1086)" stroke-linecap="round" class="BottomRight"></path>
        <path d="M236 592L577 933" stroke-width="10" stroke="url(#SvgjsLinearGradient1085)" stroke-linecap="round" class="TopLeft"></path>
        <path d="M337 1031L-271 423" stroke-width="6" stroke="url(#SvgjsLinearGradient1085)" stroke-linecap="round" class="TopLeft"></path>
        <path d="M1010 375L492 -143" stroke-width="6" stroke="url(#SvgjsLinearGradient1086)" stroke-linecap="round" class="BottomRight"></path>
        <path d="M1191 321L767 -103" stroke-width="6" stroke="url(#SvgjsLinearGradient1085)" stroke-linecap="round" class="TopLeft"></path>
        <path d="M249 730L785 1266" stroke-width="10" stroke="url(#SvgjsLinearGradient1086)" stroke-linecap="round" class="BottomRight"></path>
        <path d="M388 869L1009 1490" stroke-width="10" stroke="url(#SvgjsLinearGradient1085)" stroke-linecap="round" class="TopLeft"></path>
        <path d="M1121 470L1705 1054" stroke-width="8" stroke="url(#SvgjsLinearGradient1085)" stroke-linecap="round" class="TopLeft"></path>
        <path d="M788 370L238 -180" stroke-width="6" stroke="url(#SvgjsLinearGradient1085)" stroke-linecap="round" class="TopLeft"></path>
        <path d="M919 827L240 148" stroke-width="8" stroke="url(#SvgjsLinearGradient1086)" stroke-linecap="round" class="BottomRight"></path>
        <path d="M212 938L639 1365" stroke-width="6" stroke="url(#SvgjsLinearGradient1086)" stroke-linecap="round" class="BottomRight"></path>
        <path d="M1021 311L530 -180" stroke-width="10" stroke="url(#SvgjsLinearGradient1086)" stroke-linecap="round" class="BottomRight"></path>
        <path d="M716 829L309 422" stroke-width="10" stroke="url(#SvgjsLinearGradient1085)" stroke-linecap="round" class="TopLeft"></path>
        <path d="M835 946L175 286" stroke-width="10" stroke="url(#SvgjsLinearGradient1086)" stroke-linecap="round" class="BottomRight"></path>
        <path d="M963 170L349 -444" stroke-width="10" stroke="url(#SvgjsLinearGradient1086)" stroke-linecap="round" class="BottomRight"></path>
        <path d="M740 1027L-55 232" stroke-width="10" stroke="url(#SvgjsLinearGradient1086)" stroke-linecap="round" class="BottomRight"></path>
        <path d="M417 856L-301 138" stroke-width="10" stroke="url(#SvgjsLinearGradient1085)" stroke-linecap="round" class="TopLeft"></path>
        <path d="M948 470L364 -114" stroke-width="10" stroke="url(#SvgjsLinearGradient1086)" stroke-linecap="round" class="BottomRight"></path>
        <path d="M1403 371L1114 82" stroke-width="10" stroke="url(#SvgjsLinearGradient1085)" stroke-linecap="round" class="TopLeft"></path>
        <path d="M1388 29L1750 391" stroke-width="10" stroke="url(#SvgjsLinearGradient1086)" stroke-linecap="round" class="BottomRight"></path>
        <path d="M750 725L338 313" stroke-width="10" stroke="url(#SvgjsLinearGradient1086)" stroke-linecap="round" class="BottomRight"></path>
        <path d="M343 150L-206 -399" stroke-width="6" stroke="url(#SvgjsLinearGradient1086)" stroke-linecap="round" class="BottomRight"></path>
        <path d="M819 58L1497 736" stroke-width="8" stroke="url(#SvgjsLinearGradient1086)" stroke-linecap="round" class="BottomRight"></path>
        <path d="M6 293L-477 -190" stroke-width="8" stroke="url(#SvgjsLinearGradient1086)" stroke-linecap="round" class="BottomRight"></path>
        <path d="M746 813L33 100" stroke-width="8" stroke="url(#SvgjsLinearGradient1086)" stroke-linecap="round" class="BottomRight"></path>
        <path d="M1028 455L342 -231" stroke-width="10" stroke="url(#SvgjsLinearGradient1086)" stroke-linecap="round" class="BottomRight"></path>
        <path d="M444 853L-4 405" stroke-width="8" stroke="url(#SvgjsLinearGradient1086)" stroke-linecap="round" class="BottomRight"></path>
        <path d="M56 661L478 1083" stroke-width="8" stroke="url(#SvgjsLinearGradient1085)" stroke-linecap="round" class="TopLeft"></path>
        <path d="M422 160L826 564" stroke-width="10" stroke="url(#SvgjsLinearGradient1086)" stroke-linecap="round" class="BottomRight"></path>
        <path d="M1343 644L1657 958" stroke-width="8" stroke="url(#SvgjsLinearGradient1085)" stroke-linecap="round" class="TopLeft"></path>
        <path d="M1034 233L1318 517" stroke-width="8" stroke="url(#SvgjsLinearGradient1085)" stroke-linecap="round" class="TopLeft"></path>
    </g>
    <defs>
        <mask id="SvgjsMask1084">
            <rect width="1440" height="1080" fill="#ffffff"></rect>
        </mask>
        <linearGradient x1="100%" y1="100%" x2="0%" y2="0%" id="SvgjsLinearGradient1085">
            <stop stop-color="rgba(28, 83, 142, 0)" offset="0"></stop>
            <stop stop-color="#1c538e" offset="1"></stop>
        </linearGradient>
        <linearGradient x1="0%" y1="0%" x2="100%" y2="100%" id="SvgjsLinearGradient1086">
            <stop stop-color="rgba(28, 83, 142, 0)" offset="0"></stop>
            <stop stop-color="#1c538e" offset="1"></stop>
        </linearGradient>
    </defs>
</svg>